<?xml version="1.0" encoding="UTF-8"?>
<svg id="Layer_1" xmlns="http://www.w3.org/2000/svg" xmlns:xlink="http://www.w3.org/1999/xlink" version="1.1" viewBox="0 0 1171 158.7">
  <!-- Generator: Adobe Illustrator 29.0.0, SVG Export Plug-In . SVG Version: 2.1.0 Build 186)  -->
  <defs>
    <style>
      .st0, .st1 {
        fill: none;
      }

      .st2 {
        clip-path: url(#clippath-1);
      }

      .st3 {
        clip-path: url(#clippath-3);
      }

      .st4 {
        clip-path: url(#clippath-2);
      }

      .st5 {
        fill: #fff;
      }

      .st6 {
        fill: #878787;
      }

      .st1 {
        stroke: #000;
      }

      .st7 {
        clip-path: url(#clippath);
      }
    </style>
    <clipPath id="clippath">
      <rect class="st0" width="1170.8" height="158.7"/>
    </clipPath>
    <clipPath id="clippath-1">
      <rect class="st0" width="1170.8" height="158.7"/>
    </clipPath>
    <clipPath id="clippath-2">
      <rect class="st0" width="1170.8" height="158.7"/>
    </clipPath>
    <clipPath id="clippath-3">
      <rect class="st0" width="1170.8" height="158.7"/>
    </clipPath>
  </defs>
  <path d="M407.7,109.5h5v-1.3h-3.5v-5.8h-1.6v7.1h0ZM419.9,104.8c-.2-1.7-1.5-2.6-3.1-2.6s-3.5,1.7-3.5,3.8,1.3,3.7,3.5,3.7,3-1.1,3.1-2.9h-1.5c-.1.9-.7,1.6-1.6,1.6-1.4,0-1.9-1.2-1.9-2.4s.5-2.5,1.9-2.5,1.5.5,1.6,1.2h1.5Z"/>
  <path d="M508.8,109.5h1.5v-4.8h0l3,4.8h1.6v-7.1h-1.5v4.8h0l-3-4.8h-1.6v7.1h0ZM517.8,109.5h1.6v-5.8h2.1v-1.3h-5.8v1.3h2.1v5.8h0Z"/>
  <path d="M615.5,102.4h-1.6l-1.6,5h0l-1.6-5h-1.6l2.3,7.1h1.8l2.4-7.1h0ZM622.4,102.4h-1.6v4.4c0,1.1-.4,1.5-1.5,1.5s-1.5-.8-1.5-1.5v-4.4h-1.6v4.4c0,1.9,1.1,2.9,3,2.9s3-.9,3-2.9v-4.4h0Z"/>
  <path d="M711,109.5h5.4v-1.3h-3.8v-1.8h3.5v-1.2h-3.5v-1.5h3.8v-1.3h-5.3v7.1h0ZM717.6,109.5h1.5v-4.8h0l3,4.8h1.6v-7.1h-1.5v4.8h0l-3-4.8h-1.6v7.1h0Z"/>
  <path d="M818.1,104.8c-.2-1.7-1.5-2.6-3.1-2.6s-3.5,1.7-3.5,3.8,1.3,3.7,3.5,3.7,3-1.1,3.1-2.9h-1.5c-.1.9-.7,1.6-1.6,1.6-1.4,0-1.9-1.2-1.9-2.4s.5-2.5,1.9-2.5,1.5.5,1.6,1.2h1.5ZM819.3,109.5h1.6v-2.8h1.6c.8,0,1.1.3,1.2,1.1,0,.6,0,1.3.2,1.7h1.6c-.3-.4-.3-1.2-.3-1.7,0-.7-.3-1.5-1-1.7h0c.8-.3,1.1-1,1.1-1.8s-.8-2-2.1-2h-3.8v7.1h0ZM820.9,103.6h1.7c.7,0,1.1.3,1.1,1s-.4,1-1.1,1h-1.7v-2h0Z"/>
  <path d="M913.5,109.5h1.6v-2.8h1.6c.8,0,1.1.3,1.2,1.1,0,.6,0,1.3.2,1.7h1.6c-.3-.4-.3-1.2-.3-1.7,0-.7-.3-1.5-1-1.7h0c.8-.3,1.1-1,1.1-1.8s-.8-2-2.1-2h-3.8v7.1h0ZM915.1,103.6h1.7c.7,0,1.1.3,1.1,1s-.4,1-1.1,1h-1.7v-2h0ZM920.8,109.5h5.4v-1.3h-3.8v-1.8h3.5v-1.2h-3.5v-1.5h3.8v-1.3h-5.3v7.1h0Z"/>
  <path d="M1013.6,109.5h5.4v-1.3h-3.8v-1.8h3.5v-1.2h-3.5v-1.5h3.8v-1.3h-5.3v7.1h0ZM1029,102.4h-1.5l-1.2,4.9h0l-1.2-4.9h-1.5l-1.2,4.9h0l-1.1-4.9h-1.6l1.9,7.1h1.6l1.2-4.9h0l1.2,4.9h1.6l1.9-7.1h0Z"/>
  <path d="M394.8,83.2c-.2-1.7-1.5-2.6-3.1-2.6s-3.5,1.7-3.5,3.8,1.3,3.7,3.5,3.7,3-1.1,3.1-2.9h-1.5c-.1.9-.7,1.6-1.6,1.6-1.4,0-1.9-1.2-1.9-2.4s.5-2.5,1.9-2.5,1.5.5,1.6,1.2h1.5ZM395.6,84.4c0,2.1,1.3,3.7,3.5,3.7s3.5-1.7,3.5-3.7-1.3-3.8-3.5-3.8-3.5,1.7-3.5,3.8h0ZM397.2,84.4c0-1.2.5-2.5,1.9-2.5s1.9,1.2,1.9,2.5-.5,2.4-1.9,2.4c-1.4,0-1.9-1.2-1.9-2.4h0ZM403.8,87.9h1.5v-4.8h0l3,4.8h1.6v-7.1h-1.5v4.8h0l-3-4.8h-1.6v7.1h0ZM417.6,83.2c-.2-1.7-1.5-2.6-3.1-2.6s-3.5,1.7-3.5,3.8,1.3,3.7,3.5,3.7,3-1.1,3.1-2.9h-1.5c-.1.9-.7,1.6-1.6,1.6-1.4,0-1.9-1.2-1.9-2.4s.5-2.5,1.9-2.5,1.5.5,1.6,1.2h1.5ZM418.9,87.9h5.4v-1.3h-3.9v-1.8h3.5v-1.2h-3.5v-1.5h3.8v-1.3h-5.3v7.1h0ZM425.5,87.9h1.6v-2.8h1.6c.8,0,1.1.3,1.2,1.1,0,.6,0,1.3.2,1.7h1.6c-.3-.4-.3-1.2-.3-1.7,0-.7-.3-1.5-1-1.7h0c.8-.3,1.1-1,1.1-1.8s-.8-2-2.1-2h-3.9v7.1h0ZM427.1,82h1.7c.7,0,1.1.3,1.1,1s-.4,1-1.1,1h-1.7v-2h0ZM432.8,87.9h1.5v-4.8h0l3,4.8h1.6v-7.1h-1.5v4.8h0l-3-4.8h-1.6v7.1h0Z"/>
  <path d="M398.2,77.9h5v-1.3h-3.5v-5.8h-1.6v7.1h0ZM404.1,77.9h5.4v-1.3h-3.9v-1.8h3.5v-1.2h-3.5v-1.5h3.8v-1.3h-5.3v7.1h0ZM410.1,77.9h1.6l.6-1.6h2.7l.5,1.6h1.6l-2.7-7.1h-1.6l-2.7,7.1h0ZM413.6,72.6h0l.9,2.6h-1.9l.9-2.6h0ZM417.4,75.6c0,1.8,1.5,2.5,3,2.5s3-1,3-2.3-1.6-2-2.1-2.1c-1.8-.5-2.1-.5-2.1-1.1s.6-.8,1.1-.8c.8,0,1.4.2,1.4,1.1h1.5c0-1.6-1.4-2.3-2.9-2.3s-2.7.7-2.7,2.2,1.1,1.8,2.1,2c1,.3,2.1.4,2.1,1.2s-.8.9-1.4.9c-.8,0-1.6-.4-1.6-1.3h-1.5ZM426,77.9h1.6v-5.8h2.1v-1.3h-5.9v1.3h2.1v5.8h0Z"/>
  <polygon class="st6" points=".1 64 .1 94.8 97.8 94.8 97.8 64 .1 64"/>
  <g>
    <g class="st7">
      <polygon class="st6" points="101.4 64 101.4 94.8 199 94.8 199 64 101.4 64"/>
    </g>
    <g class="st2">
      <polygon points="1073.3 64 1073.3 94.8 1171 94.8 1171 64 1073.3 64"/>
    </g>
  </g>
  <path class="st5" d="M20,87.9h5.4v-1.3h-3.8v-1.8h3.5v-1.2h-3.5v-1.5h3.8v-1.3h-5.3v7.1h0ZM32.5,80.8h-1.6l-1.6,5h0l-1.6-5h-1.6l2.3,7.1h1.8l2.4-7.1h0ZM32,87.9h1.6l.6-1.6h2.7l.5,1.6h1.6l-2.7-7.1h-1.6l-2.7,7.1h0ZM35.5,82.6h0l.9,2.6h-1.8l.9-2.6h0ZM39.7,87.9h5.1v-1.3h-3.5v-5.8h-1.6v7.1h0ZM51.7,80.8h-1.6v4.4c0,1.1-.4,1.5-1.5,1.5s-1.5-.8-1.5-1.5v-4.4h-1.6v4.4c0,1.9,1.1,2.9,3,2.9s3.1-.9,3.1-2.9v-4.4h0ZM52.1,87.9h1.6l.6-1.6h2.7l.5,1.6h1.6l-2.7-7.1h-1.6l-2.7,7.1h0ZM55.6,82.6h0l.9,2.6h-1.8l.9-2.6h0ZM60.7,87.9h1.6v-5.8h2.1v-1.3h-5.8v1.3h2.1v5.8h0ZM65.2,87.9h5.4v-1.3h-3.8v-1.8h3.5v-1.2h-3.5v-1.5h3.8v-1.3h-5.3v7.1h0ZM71.9,87.9h3.1c2.2,0,3.2-1.5,3.2-3.6s-1.4-3.5-3.2-3.5h-3.1v7.1h0ZM73.5,82.1h1.1c1.6,0,2.1.9,2.1,2.4s-.9,2.1-1.8,2.1h-1.4v-4.5h0Z"/>
  <path class="st5" d="M39,77.9h1.5v-4.8h0l3,4.8h1.6v-7.1h-1.5v4.8h0l-3-4.8h-1.6v7.1h0ZM46.2,74.4c0,2.1,1.3,3.7,3.5,3.7s3.5-1.6,3.5-3.7-1.3-3.8-3.5-3.8-3.5,1.6-3.5,3.8h0ZM47.8,74.4c0-1.2.5-2.5,1.9-2.5s1.9,1.2,1.9,2.5-.5,2.4-1.9,2.4-1.9-1.2-1.9-2.4h0ZM55.8,77.9h1.6v-5.8h2.1v-1.3h-5.8v1.3h2.1v5.8h0Z"/>
  <path d="M482.9,87.9h1.6v-5.8h2.1v-1.3h-5.8v1.3h2.1v5.8h0ZM487.5,87.9h1.6v-3.1h2.9v3.1h1.6v-7.1h-1.6v2.7h-2.9v-2.7h-1.6v7.1h0ZM495,87.9h1.6v-2.8h1.6c.8,0,1.1.3,1.2,1.1,0,.6,0,1.3.2,1.7h1.6c-.3-.4-.3-1.2-.3-1.7,0-.7-.3-1.5-1-1.7h0c.8-.3,1.1-1,1.1-1.8s-.8-2-2.1-2h-3.8v7.1h0ZM496.6,82h1.7c.7,0,1.1.3,1.1,1s-.4,1-1.1,1h-1.7v-2h0ZM502.4,87.9h5.4v-1.3h-3.8v-1.8h3.5v-1.2h-3.5v-1.5h3.8v-1.3h-5.3v7.1h0ZM508.4,87.9h1.6l.6-1.6h2.7l.5,1.6h1.6l-2.7-7.1h-1.6l-2.7,7.1h0ZM511.9,82.6h0l.9,2.6h-1.8l.9-2.6h0ZM517,87.9h1.6v-5.8h2.1v-1.3h-5.8v1.3h2.1v5.8h0ZM521.5,87.9h5.4v-1.3h-3.8v-1.8h3.5v-1.2h-3.5v-1.5h3.8v-1.3h-5.3v7.1h0ZM528.2,87.9h1.5v-4.8h0l3,4.8h1.6v-7.1h-1.5v4.8h0l-3-4.8h-1.6v7.1h0ZM535.7,87.9h5.4v-1.3h-3.8v-1.8h3.5v-1.2h-3.5v-1.5h3.8v-1.3h-5.3v7.1h0ZM542.4,87.9h3.1c2.2,0,3.2-1.5,3.2-3.6s-1.4-3.5-3.2-3.5h-3.1v7.1h0ZM544,82.1h1.1c1.6,0,2.1.9,2.1,2.4s-.9,2.1-1.8,2.1h-1.4v-4.5h0Z"/>
  <path d="M501.3,77.9h1.5v-4.8h0l3,4.8h1.6v-7.1h-1.5v4.8h0l-3-4.8h-1.6v7.1h0ZM508.8,77.9h5.4v-1.3h-3.8v-1.8h3.5v-1.2h-3.5v-1.5h3.8v-1.3h-5.3v7.1h0ZM514.9,77.9h1.6l.6-1.6h2.7l.5,1.6h1.6l-2.7-7.1h-1.6l-2.7,7.1h0ZM518.4,72.6h0l.9,2.6h-1.8l.9-2.6h0ZM522.6,77.9h1.6v-2.8h1.6c.8,0,1.1.3,1.2,1.1,0,.6,0,1.3.2,1.7h1.6c-.3-.4-.3-1.2-.3-1.7,0-.7-.3-1.5-1-1.7h0c.8-.3,1.1-1,1.1-1.8s-.8-2-2.1-2h-3.8v7.1h0ZM524.2,72h1.7c.7,0,1.1.3,1.1,1s-.4,1-1.1,1h-1.7v-2h0Z"/>
  <path d="M588.3,75.8h-1.6l-1.6,5h0l-1.6-5h-1.6l2.3,7.1h1.8l2.4-7.1h0ZM595.2,75.8h-1.6v4.4c0,1.1-.4,1.5-1.5,1.5s-1.5-.8-1.5-1.5v-4.4h-1.6v4.4c0,1.9,1.1,2.9,3,2.9s3-.9,3-2.9v-4.4h0ZM596.7,82.9h5v-1.3h-3.5v-5.8h-1.6v7.1h0ZM602.6,82.9h1.5v-4.8h0l3,4.8h1.6v-7.1h-1.5v4.8h0l-3-4.8h-1.6v7.1h0ZM610.2,82.9h5.4v-1.3h-3.8v-1.8h3.5v-1.2h-3.5v-1.5h3.8v-1.3h-5.3v7.1h0ZM616.8,82.9h1.6v-2.8h1.6c.8,0,1.1.3,1.2,1.1,0,.6,0,1.3.2,1.7h1.6c-.3-.4-.3-1.2-.3-1.7,0-.7-.3-1.5-1-1.7h0c.8-.3,1.1-1,1.1-1.8s-.8-2-2.1-2h-3.8v7.1h0ZM618.4,77h1.7c.7,0,1.1.3,1.1,1s-.4,1-1.1,1h-1.7v-2h0ZM623.6,82.9h1.6l.6-1.6h2.7l.5,1.6h1.6l-2.7-7.1h-1.6l-2.7,7.1h0ZM627,77.6h0l.9,2.6h-1.8l.9-2.6h0ZM632.9,79.8h1.7c.7,0,1.1.3,1.1,1s-.5.9-1.2.9h-1.7v-2h0ZM631.3,82.9h3.5c1.3,0,2.5-.6,2.5-2.1s-.4-1.6-1.3-1.8c.6-.3,1-.8,1-1.5,0-1.3-.9-1.8-2.3-1.8h-3.4v7.1h0ZM632.9,77h1.5c.6,0,1.1.1,1.1.8s-.4.9-1,.9h-1.6v-1.7h0ZM638.5,82.9h5v-1.3h-3.5v-5.8h-1.6v7.1h0ZM644.4,82.9h5.4v-1.3h-3.8v-1.8h3.5v-1.2h-3.5v-1.5h3.8v-1.3h-5.3v7.1h0Z"/>
  <path d="M682.1,82.9h5.4v-1.3h-3.8v-1.8h3.5v-1.2h-3.5v-1.5h3.8v-1.3h-5.3v7.1h0ZM688.8,82.9h1.5v-4.8h0l3,4.8h1.6v-7.1h-1.5v4.8h0l-3-4.8h-1.6v7.1h0ZM696.3,82.9h3.1c2.2,0,3.2-1.5,3.2-3.6s-1.4-3.5-3.2-3.5h-3.1v7.1h0ZM697.9,77.1h1.1c1.6,0,2.1.9,2.1,2.4s-.9,2.1-1.8,2.1h-1.4v-4.5h0ZM702.8,82.9h1.6l.6-1.6h2.7l.5,1.6h1.6l-2.7-7.1h-1.6l-2.7,7.1h0ZM706.3,77.6h0l.9,2.6h-1.8l.9-2.6h0ZM710.6,82.9h1.5v-4.8h0l3,4.8h1.6v-7.1h-1.5v4.8h0l-3-4.8h-1.6v7.1h0ZM723.4,82.9h1v-3.9h-3v1.2h1.6c0,1-.7,1.5-1.7,1.5s-1.9-1.2-1.9-2.4.5-2.5,1.9-2.5,1.3.4,1.5,1.2h1.5c-.2-1.6-1.5-2.5-3-2.5-2.2,0-3.5,1.6-3.5,3.8s1.3,3.7,3.5,3.7,1.4-.3,2-1l.2.8h0ZM725.8,82.9h5.4v-1.3h-3.8v-1.8h3.5v-1.2h-3.5v-1.5h3.8v-1.3h-5.3v7.1h0ZM732.5,82.9h1.6v-2.8h1.6c.8,0,1.1.3,1.2,1.1,0,.6,0,1.3.2,1.7h1.6c-.3-.4-.3-1.2-.3-1.7,0-.7-.3-1.5-1-1.7h0c.8-.3,1.1-1,1.1-1.8s-.8-2-2.1-2h-3.8v7.1h0ZM734,77h1.7c.7,0,1.1.3,1.1,1s-.4,1-1.1,1h-1.7v-2h0ZM739.8,82.9h5.4v-1.3h-3.8v-1.8h3.5v-1.2h-3.5v-1.5h3.8v-1.3h-5.3v7.1h0ZM746.5,82.9h3.1c2.2,0,3.2-1.5,3.2-3.6s-1.4-3.5-3.2-3.5h-3.1v7.1h0ZM748,77.1h1.1c1.6,0,2.1.9,2.1,2.4s-.9,2.1-1.8,2.1h-1.4v-4.5h0Z"/>
  <path d="M783.4,87.9h5.4v-1.3h-3.8v-1.8h3.5v-1.2h-3.5v-1.5h3.8v-1.3h-5.3v7.1h0ZM790,87.9h1.5v-4.8h0l3,4.8h1.6v-7.1h-1.5v4.8h0l-3-4.8h-1.6v7.1h0ZM797.5,87.9h3.1c2.2,0,3.2-1.5,3.2-3.6s-1.4-3.5-3.2-3.5h-3.1v7.1h0ZM799.1,82.1h1.1c1.6,0,2.1.9,2.1,2.4s-.9,2.1-1.8,2.1h-1.4v-4.5h0ZM804,87.9h1.6l.6-1.6h2.7l.5,1.6h1.6l-2.7-7.1h-1.6l-2.7,7.1h0ZM807.5,82.6h0l.9,2.6h-1.8l.9-2.6h0ZM811.8,87.9h1.5v-4.8h0l3,4.8h1.6v-7.1h-1.5v4.8h0l-3-4.8h-1.6v7.1h0ZM824.6,87.9h1v-3.9h-3v1.2h1.6c0,1-.7,1.5-1.7,1.5s-1.9-1.2-1.9-2.4.5-2.5,1.9-2.5,1.3.4,1.5,1.2h1.5c-.2-1.6-1.5-2.5-3-2.5-2.2,0-3.5,1.7-3.5,3.8s1.3,3.7,3.5,3.7,1.4-.3,2-1l.2.8h0ZM827,87.9h5.4v-1.3h-3.8v-1.8h3.5v-1.2h-3.5v-1.5h3.8v-1.3h-5.3v7.1h0ZM833.7,87.9h1.6v-2.8h1.6c.8,0,1.1.3,1.2,1.1,0,.6,0,1.3.2,1.7h1.6c-.3-.4-.3-1.2-.3-1.7,0-.7-.3-1.5-1-1.7h0c.8-.3,1.1-1,1.1-1.8s-.8-2-2.1-2h-3.8v7.1h0ZM835.3,82h1.7c.7,0,1.1.3,1.1,1s-.4,1-1.1,1h-1.7v-2h0ZM841,87.9h5.4v-1.3h-3.8v-1.8h3.5v-1.2h-3.5v-1.5h3.8v-1.3h-5.3v7.1h0ZM847.7,87.9h3.1c2.2,0,3.2-1.5,3.2-3.6s-1.4-3.5-3.2-3.5h-3.1v7.1h0ZM849.2,82.1h1.1c1.6,0,2.1.9,2.1,2.4s-.9,2.1-1.8,2.1h-1.4v-4.5h0Z"/>
  <path d="M796,73.2c-.2-1.6-1.5-2.6-3.1-2.6s-3.5,1.6-3.5,3.8,1.3,3.7,3.5,3.7,3-1.1,3.1-2.9h-1.5c-.1.9-.7,1.6-1.6,1.6-1.4,0-1.9-1.2-1.9-2.4s.5-2.5,1.9-2.5,1.5.5,1.6,1.2h1.5ZM797.2,77.9h1.6v-2.8h1.6c.8,0,1.1.3,1.2,1.1,0,.6,0,1.3.2,1.7h1.6c-.3-.4-.3-1.2-.3-1.7,0-.7-.3-1.5-1-1.7h0c.8-.3,1.1-1,1.1-1.8s-.8-2-2.1-2h-3.8v7.1h0ZM798.8,72h1.7c.7,0,1.1.3,1.1,1s-.4,1-1.1,1h-1.7v-2h0ZM804.5,77.9h1.6v-7.1h-1.6v7.1h0ZM809.1,77.9h1.6v-5.8h2.1v-1.3h-5.8v1.3h2.1v5.8h0ZM813.7,77.9h1.6v-7.1h-1.6v7.1h0ZM823,73.2c-.2-1.6-1.5-2.6-3.1-2.6s-3.5,1.6-3.5,3.8,1.3,3.7,3.5,3.7,3-1.1,3.1-2.9h-1.5c-.1.9-.7,1.6-1.6,1.6-1.4,0-1.9-1.2-1.9-2.4s.5-2.5,1.9-2.5,1.5.5,1.6,1.2h1.5ZM823.3,77.9h1.6l.6-1.6h2.7l.5,1.6h1.6l-2.7-7.1h-1.6l-2.7,7.1h0ZM826.8,72.6h0l.9,2.6h-1.8l.9-2.6h0ZM831,77.9h5v-1.3h-3.5v-5.8h-1.6v7.1h0ZM837,77.9h5v-1.3h-3.5v-5.8h-1.6v7.1h0ZM843.9,77.9h1.6v-2.7l2.7-4.4h-1.8l-1.7,2.8-1.7-2.8h-1.8l2.6,4.4v2.8h0Z"/>
  <path d="M898.4,87.9h5.4v-1.3h-3.8v-1.8h3.5v-1.2h-3.5v-1.5h3.8v-1.3h-5.3v7.1h0ZM904.4,87.9h1.8l1.6-2.5,1.6,2.5h1.9l-2.5-3.7,2.3-3.4h-1.7l-1.5,2.3-1.4-2.3h-1.8l2.3,3.4-2.5,3.7h0ZM913.7,87.9h1.6v-5.8h2.1v-1.3h-5.8v1.3h2.1v5.8h0ZM918.3,87.9h1.6v-7.1h-1.6v7.1h0ZM921.4,87.9h1.5v-4.8h0l3,4.8h1.6v-7.1h-1.5v4.8h0l-3-4.8h-1.6v7.1h0ZM935.2,83.2c-.2-1.7-1.5-2.6-3.1-2.6s-3.5,1.7-3.5,3.8,1.3,3.7,3.5,3.7,3-1.1,3.1-2.9h-1.5c-.1.9-.7,1.6-1.6,1.6-1.4,0-1.9-1.2-1.9-2.4s.5-2.5,1.9-2.5,1.5.5,1.6,1.2h1.5ZM937.9,87.9h1.6v-5.8h2.1v-1.3h-5.8v1.3h2.1v5.8h0Z"/>
  <path d="M888,77.9h1.6v-2.8h1.6c.8,0,1.1.3,1.2,1.1,0,.6,0,1.3.2,1.7h1.6c-.3-.4-.3-1.2-.3-1.7,0-.7-.3-1.5-1-1.7h0c.8-.3,1.1-1,1.1-1.8s-.8-2-2.1-2h-3.8v7.1h0ZM889.6,72h1.7c.7,0,1.1.3,1.1,1s-.4,1-1.1,1h-1.7v-2h0ZM895.4,77.9h5.4v-1.3h-3.8v-1.8h3.5v-1.2h-3.5v-1.5h3.8v-1.3h-5.3v7.1h0ZM907.2,77.9h1v-3.9h-3v1.2h1.6c0,1-.7,1.5-1.7,1.5s-1.9-1.2-1.9-2.4.5-2.5,1.9-2.5,1.3.4,1.5,1.2h1.5c-.2-1.6-1.5-2.5-3-2.5-2.2,0-3.5,1.6-3.5,3.8s1.3,3.7,3.5,3.7,1.4-.3,2-1l.2.8h0ZM909.7,77.9h1.6v-7.1h-1.6v7.1h0ZM912.4,74.4c0,2.1,1.3,3.7,3.5,3.7s3.5-1.6,3.5-3.7-1.3-3.8-3.5-3.8-3.5,1.6-3.5,3.8h0ZM914,74.4c0-1.2.5-2.5,1.9-2.5s1.9,1.2,1.9,2.5-.5,2.4-1.9,2.4-1.9-1.2-1.9-2.4h0ZM920.6,77.9h1.5v-4.8h0l3,4.8h1.6v-7.1h-1.5v4.8h0l-3-4.8h-1.6v7.1h0ZM927.4,77.9h1.6l.6-1.6h2.7l.5,1.6h1.6l-2.7-7.1h-1.6l-2.7,7.1h0ZM930.9,72.6h0l.9,2.6h-1.8l.9-2.6h0ZM935.2,77.9h5v-1.3h-3.5v-5.8h-1.6v7.1h0ZM941.1,77.9h5v-1.3h-3.5v-5.8h-1.6v7.1h0ZM948,77.9h1.6v-2.7l2.7-4.4h-1.8l-1.7,2.8-1.7-2.8h-1.8l2.6,4.4v2.8h0Z"/>
  <path d="M990.6,87.9h1.6v-7.1h-1.6v7.1h0ZM993.6,87.9h1.5v-4.8h0l3,4.8h1.6v-7.1h-1.5v4.8h0l-3-4.8h-1.6v7.1h0ZM1005.4,87.9h1.6v-5.8h2.1v-1.3h-5.8v1.3h2.1v5.8h0ZM1010,87.9h1.6v-3.1h2.9v3.1h1.6v-7.1h-1.6v2.7h-2.9v-2.7h-1.6v7.1h0ZM1017.5,87.9h5.4v-1.3h-3.8v-1.8h3.5v-1.2h-3.5v-1.5h3.8v-1.3h-5.3v7.1h0ZM1035.5,80.8h-1.5l-1.2,4.9h0l-1.2-4.9h-1.5l-1.2,4.9h0l-1.1-4.9h-1.6l1.9,7.1h1.6l1.2-4.9h0l1.2,4.9h1.6l1.9-7.1h0ZM1036.3,87.9h1.6v-7.1h-1.6v7.1h0ZM1039.4,87.9h5v-1.3h-3.5v-5.8h-1.6v7.1h0ZM1045.3,87.9h3.1c2.2,0,3.2-1.5,3.2-3.6s-1.4-3.5-3.2-3.5h-3.1v7.1h0ZM1046.9,82.1h1.1c1.6,0,2.1.9,2.1,2.4s-.9,2.1-1.8,2.1h-1.4v-4.5h0Z"/>
  <path d="M999.6,77.9h5.4v-1.3h-3.8v-1.8h3.5v-1.2h-3.5v-1.5h3.8v-1.3h-5.3v7.1h0ZM1005.6,77.9h1.8l1.6-2.5,1.6,2.5h1.9l-2.5-3.7,2.3-3.4h-1.7l-1.4,2.3-1.4-2.3h-1.8l2.3,3.4-2.5,3.7h0ZM1015,77.9h1.6v-5.8h2.1v-1.3h-5.8v1.3h2.2v5.8h0ZM1019.5,77.9h1.6v-7.1h-1.6v7.1h0ZM1022.6,77.9h1.5v-4.8h0l3,4.8h1.6v-7.1h-1.5v4.8h0l-3-4.8h-1.6v7.1h0ZM1036.4,73.2c-.2-1.6-1.5-2.6-3.1-2.6s-3.5,1.6-3.5,3.8,1.3,3.7,3.5,3.7,3-1.1,3.1-2.9h-1.5c-.1.9-.7,1.6-1.6,1.6-1.4,0-1.9-1.2-1.9-2.4s.5-2.5,1.9-2.5,1.5.5,1.6,1.2h1.5ZM1039.2,77.9h1.6v-5.8h2.1v-1.3h-5.8v1.3h2.1v5.8h0Z"/>
  <path class="st5" d="M1100.8,82.9h5.4v-1.3h-3.8v-1.8h3.5v-1.2h-3.5v-1.5h3.8v-1.3h-5.3v7.1h0ZM1106.9,82.9h1.8l1.6-2.5,1.6,2.5h1.9l-2.5-3.7,2.3-3.4h-1.7l-1.4,2.3-1.4-2.3h-1.8l2.3,3.4-2.5,3.7h0ZM1116.2,82.9h1.6v-5.8h2.1v-1.3h-5.8v1.3h2.1v5.8h0ZM1120.8,82.9h1.6v-7.1h-1.6v7.1h0ZM1123.8,82.9h1.5v-4.8h0l3,4.8h1.6v-7.1h-1.5v4.8h0l-3-4.8h-1.6v7.1h0ZM1137.6,78.2c-.2-1.6-1.5-2.6-3.1-2.6s-3.5,1.6-3.5,3.8,1.3,3.7,3.5,3.7,3-1.1,3.1-2.9h-1.5c-.1.9-.7,1.6-1.6,1.6-1.4,0-1.9-1.2-1.9-2.4s.5-2.5,1.9-2.5,1.5.5,1.6,1.2h1.5ZM1140.4,82.9h1.6v-5.8h2.1v-1.3h-5.8v1.3h2.1v5.8h0Z"/>
  <path class="st1" d="M353.5,64.5h719.9M353.5,94.2h719.9"/>
  <path d="M1116.1,109.5h5.4v-1.3h-3.8v-1.8h3.5v-1.2h-3.5v-1.5h3.8v-1.3h-5.3v7.1h0ZM1122.2,109.5h1.8l1.6-2.5,1.6,2.5h1.9l-2.5-3.7,2.3-3.4h-1.7l-1.4,2.3-1.4-2.3h-1.8l2.3,3.4-2.5,3.7h0Z"/>
  <g>
    <g class="st4">
      <path d="M42.7,109.5h1.5v-4.8h0l3,4.8h1.6v-7.1h-1.5v4.8h0l-3-4.8h-1.6v7.1h0ZM50.2,109.5h5.4v-1.3h-3.8v-1.8h3.5v-1.2h-3.5v-1.5h3.8v-1.3h-5.3v7.1h0Z"/>
    </g>
    <g class="st3">
      <path class="st6" d="M361.3,79.4V0h-80.7c-43.2.8-78,36-78,79.4s35.5,79.4,79.4,79.4,79.1-35.3,79.4-79h0v-.3h0Z"/>
    </g>
  </g>
  <path class="st5" d="M358,30.6c0-.6-.5-1-1-1s-1,.4-1,1,.4,1,1,1c.6,0,1-.4,1-1h0ZM357.8,30.6c0,.5-.4.9-.8.9s-.8-.4-.8-.9.4-.9.8-.9.8.4.8.9h0ZM356.6,30.6c0-.2.1-.4.4-.4s.3.1.3.2h.2c0-.3-.2-.4-.5-.4-.4,0-.6.3-.6.6s.2.6.6.6.5-.2.5-.4h-.2c0,.1-.1.2-.3.2-.2,0-.4-.2-.4-.4h0ZM356.2,33.9c0-2.4-1.4-3.8-3.8-3.8h-3.3s0,7.7,0,7.7h3.3c2.3,0,3.8-1.4,3.8-3.9h0ZM354.2,33.9c0,1.5-.6,2.1-2.1,2.2h-.9v-4.2s.9,0,.9,0c1.4,0,2.1.7,2.1,2.1h0ZM353.4,16.4c1.5-1.5,1.9-3.6.7-4.8-1.1-1.2-3.3-.9-4.8.6s-1.9,3.6-.7,4.8c1.1,1.2,3.3.9,4.8-.6h0ZM348.8,11.9c1.5-1.5,1.9-3.6.7-4.8-1.1-1.2-3.3-.9-4.8.6s-1.9,3.6-.7,4.8c1.1,1.2,3.3.9,4.8-.6h0ZM341.6,13.1c1.5-1.5,1.9-3.6.7-4.8-1.1-1.2-3.3-.9-4.8.6s-1.9,3.6-.7,4.8c1.1,1.2,3.3.9,4.8-.6h0ZM340.1,14.8c-3.3,0-6,2.7-6,6.1s2.7,6,6,6c3.3,0,6-2.7,6-6.1,0-3.3-2.7-6-6-6h0ZM332.3,38.4c0-5.4-4.4-9.7-9.7-9.7s-9.7,4.4-9.7,9.7c0,5.4,4.4,9.7,9.7,9.7s9.7-4.4,9.7-9.7h0ZM323.7,36.4h-1.3c0,0-.1-.1-.2-.2-.6-.6-1.4-.9-2.2-.9s-1.6.4-2.2.9c-.6.6-.9,1.4-.9,2.2s.4,1.6.9,2.2c.6.6,1.3.9,2.2.9s1.6-.4,2.2-.9c0,0,0,0,.1-.1h1.3c-.7,1.2-2.1,2.1-3.6,2.1-2.3,0-4.2-1.9-4.2-4.2,0-2.3,1.9-4.2,4.2-4.2,1.6,0,3,.9,3.7,2.2h0ZM321.3,38.5c0,0,0,.2,0,.2s0,.1,0,.2.1.1.2.1c0,0,.1,0,.2,0s.2,0,.3-.1c0,0,.1-.2.1-.3h.4c0,.1,0,.2,0,.3,0,.1-.1.2-.2.2s-.2.1-.3.2-.2,0-.3,0-.3,0-.4,0-.2-.1-.3-.2-.1-.2-.2-.3c0-.1,0-.3,0-.4s0-.3,0-.4c0-.1.1-.2.2-.3,0,0,.2-.2.3-.2s.2,0,.4,0,.2,0,.3,0,.2,0,.3.1.1.1.2.2,0,.2,0,.3h-.4s0,0,0-.1c0,0,0,0-.1-.1s0,0-.1,0c0,0-.1,0-.1,0-.1,0-.2,0-.2,0s-.1,0-.2.1,0,.1,0,.2c0,0,0,.2,0,.3h0ZM320.2,38.7v-1.2h.4v1.2c0,.3,0,.5-.2.6s-.4.2-.6.2-.5,0-.6-.2c-.1-.1-.2-.3-.2-.6v-1.2h.4v1.2s0,.1,0,.2c0,0,0,.1,0,.1s0,0,.1.1c0,0,.1,0,.2,0,.1,0,.3,0,.3-.1,0,0,0-.2,0-.3h0ZM318.2,39.4v-2h.4v2h-.4ZM324.6,39.4h-.4l-.8-1.3h0v1.3h-.4v-2h.4l.8,1.3h0v-1.3h.4v2h0ZM332.1,17.2V7.6s-9.7,0-9.7,0c-5.3,0-9.6,4.3-9.6,9.7,0,5.3,4.3,9.6,9.6,9.6,5.3,0,9.6-4.3,9.6-9.7h0ZM338.4,30.1h-3.9s0,7.7,0,7.7h2v-2.8s1.5,0,1.5,0c.9,0,1.1.8,1.1,1.6,0,.2,0,1,.2,1.2h2c-.3-.3-.3-1.4-.3-1.7,0-.7-.3-1.6-1.1-1.8h0c.8-.3,1.2-1.1,1.2-1.9,0-1.5-1.3-2.2-2.7-2.1h0ZM338.1,31.7c.6,0,1,.3,1,.8s-.3.9-.9.9h-1.7v-1.7h1.6ZM336.5,38.5h-2v7.6s5.6,0,5.6,0v-1.7h-3.6s0-5.9,0-5.9h0ZM342.6,38.5h-2v7.6h2v-7.6h0ZM348,19.4c-1.5,1.5-1.9,3.6-.7,4.8,1.1,1.2,3.3.9,4.8-.6s1.9-3.6.7-4.8c-1.1-1.2-3.3-.9-4.8.6h0ZM344,36v-1.5h3.8v-1.6h-3.8s0-1.3,0-1.3h4.1v-1.6h-6.1s0,7.7,0,7.7h6.2v-1.7h-4.2ZM345.1,43.6h-2c0,2,1.6,2.7,3.3,2.7s3.3-.6,3.3-2.6-1.1-1.9-2.2-2.2c-1.1-.3-2.2-.4-2.2-1s.5-.6,1-.7c.6,0,1.3.2,1.2.9h2c0-1.7-1.5-2.5-3.1-2.5s-3.1.7-3.1,2.3c0,1.4,1.1,1.9,2.2,2.2,1.1.3,2.2.4,2.2,1.1s-.6.8-1.2.8c-.9,0-1.4-.3-1.4-1.2h0ZM349.5,40.2h2.3v5.9h2v-5.9s2.3,0,2.3,0v-1.7h-6.6s0,1.7,0,1.7h0Z"/>
  <path class="st5" d="M278.1,104.2c.7,0,1.2.2,1.4.6s.4,1,.4,1.8,0,1-.2,1.4c-.3.7-.8,1.1-1.6,1.1h-1.5v-4.9h1.5ZM278.4,102.9h-3.3v7.6h3.3c1.1,0,2-.5,2.5-1.4.4-.7.6-1.5.6-2.5s0-.8-.1-1.2c-.1-.4-.3-.8-.5-1.2-.3-.5-.8-.8-1.3-1-.3-.1-.7-.2-1.2-.2h0ZM285.8,104.2c.7,0,1.2.2,1.4.6s.4,1,.4,1.8,0,1-.2,1.4c-.3.7-.8,1.1-1.6,1.1h-1.5v-4.9h1.5ZM286,102.9h-3.3v7.6h3.3c1.1,0,2-.5,2.5-1.4.4-.7.6-1.5.6-2.5s0-.8-.1-1.2c-.1-.4-.3-.8-.5-1.2-.3-.5-.8-.8-1.3-1-.3-.1-.7-.2-1.2-.2h0Z"/>
  <path class="st5" d="M244.3,85.1c1.1,0,1.9.3,2.3,1,.4.7.6,1.6.6,2.8s-.1,1.6-.4,2.3c-.5,1.2-1.3,1.7-2.5,1.7h-2.3v-7.8h2.3ZM244.7,83h-5.1v11.9h5.1c1.8,0,3.1-.7,4-2.2.6-1.1,1-2.4,1-4s0-1.3-.2-2c-.1-.7-.4-1.3-.9-1.9-.5-.7-1.2-1.2-2-1.5-.5-.2-1.1-.2-1.8-.3h0ZM260.3,83h-8.7v11.9h9v-2.1h-6.6v-3h5.8v-2.1h-5.8v-2.5h6.3v-2.1h0ZM262.5,94.9h2.5v-5h5.3v-2.1h-5.3v-2.7h6v-2.1h-8.5v11.9h0ZM274.8,83h-2.5v11.9h2.5v-11.9h0ZM276.7,89c0,1.9.5,3.4,1.5,4.5,1,1.1,2.3,1.6,4,1.6s2.5-.4,3.4-1.2,1.4-1.9,1.6-3.2h-2.5c-.2.6-.4,1.1-.6,1.4-.5.6-1.1.8-2,.8s-1.5-.3-2-1c-.5-.7-.8-1.7-.8-3s.3-2.4.8-3.1c.5-.7,1.2-1.1,2.1-1.1s1.5.3,2,.8c.2.3.5.7.6,1.3h2.5c0-.7-.3-1.5-.8-2.2-.9-1.3-2.4-2-4.3-2s-2.7.5-3.6,1.5c-1.1,1.1-1.6,2.7-1.6,4.8h0ZM291.4,83h-2.5v11.9h2.5v-11.9h0ZM302.5,83h-8.7v11.9h9v-2.1h-6.6v-3h5.8v-2.1h-5.8v-2.5h6.3v-2.1h0ZM304.7,94.9h2.3v-8.4l4.8,8.4h2.5v-11.9h-2.3v8.3l-4.7-8.3h-2.6v11.9h0ZM315.7,83v2.1h3.6v9.8h2.5v-9.8h3.5v-2.1h-9.6Z"/>
  <path class="st5" d="M266.5,67.5c1.1,0,1.9.3,2.3,1s.6,1.6.6,2.8-.1,1.6-.4,2.3c-.5,1.1-1.3,1.7-2.5,1.7h-2.3v-7.8h2.3ZM267,65.4h-5.1v11.9h5.1c1.8,0,3.1-.7,4-2.2.6-1.1,1-2.4,1-4s0-1.3-.2-2c-.1-.7-.4-1.3-.9-1.9-.5-.7-1.2-1.2-2-1.5-.5-.1-1.1-.2-1.8-.2h0ZM278,68.1l1.5,4.7h-3l1.5-4.7h0ZM272.4,77.3h2.6l.8-2.4h4.4l.8,2.4h2.7l-4.2-11.9h-2.8l-4.2,11.9h0ZM282.9,65.4v2.1h3.6v9.8h2.5v-9.8h3.5v-2.1h-9.6ZM297.4,68.1l1.5,4.7h-3l1.5-4.7h0ZM291.8,77.3h2.6l.8-2.4h4.4l.8,2.4h2.7l-4.2-11.9h-2.8l-4.2,11.9h0Z"/>
  <path class="st5" d="M118.8,87.9h1.6l.6-1.6h2.7l.5,1.6h1.6l-2.7-7.1h-1.6l-2.7,7.1h0ZM122.2,82.6h0l.9,2.6h-1.9l.9-2.6h0ZM126.5,87.9h1.6v-2.6h1.6c1.8,0,2.5-1.1,2.5-2.3s-.7-2.3-2.5-2.3h-3.2v7.1h0ZM128.1,82h1.2c.7,0,1.4.2,1.4,1.1s-.6,1.1-1.4,1.1h-1.2v-2.1h0ZM133.1,87.9h1.6v-2.6h1.6c1.8,0,2.5-1.1,2.5-2.3s-.7-2.3-2.5-2.3h-3.2v7.1h0ZM134.7,82h1.2c.7,0,1.4.2,1.4,1.1s-.6,1.1-1.4,1.1h-1.2v-2.1h0ZM139.8,87.9h5.1v-1.3h-3.5v-5.8h-1.6v7.1h0ZM145.7,87.9h1.6v-7.1h-1.6v7.1h0ZM155.1,83.2c-.2-1.7-1.5-2.6-3.1-2.6s-3.5,1.7-3.5,3.8,1.3,3.7,3.5,3.7,3-1.1,3.1-2.9h-1.5c-.1.9-.7,1.6-1.6,1.6-1.4,0-1.9-1.2-1.9-2.4s.5-2.5,1.9-2.5,1.5.5,1.6,1.2h1.5ZM155.3,87.9h1.6l.6-1.6h2.7l.5,1.6h1.6l-2.7-7.1h-1.6l-2.7,7.1h0ZM158.8,82.6h0l.9,2.6h-1.9l.9-2.6h0ZM164.7,84.8h1.7c.7,0,1.1.3,1.1,1s-.5.9-1.2.9h-1.7v-2h0ZM163.1,87.9h3.5c1.3,0,2.5-.6,2.5-2.1s-.4-1.6-1.3-1.8c.6-.3,1-.8,1-1.5,0-1.3-.9-1.8-2.3-1.8h-3.4v7.1h0ZM164.7,82h1.5c.6,0,1.1.1,1.1.8s-.4.8-1,.8h-1.6v-1.7h0ZM170.3,87.9h5.1v-1.3h-3.5v-5.8h-1.6v7.1h0ZM176.2,87.9h5.4v-1.3h-3.9v-1.8h3.5v-1.2h-3.5v-1.5h3.8v-1.3h-5.3v7.1h0Z"/>
  <path class="st5" d="M140.4,77.9h1.5v-4.8h0l3,4.8h1.6v-7.1h-1.5v4.8h0l-3-4.8h-1.6v7.1h0ZM147.6,74.4c0,2.1,1.3,3.7,3.5,3.7s3.5-1.6,3.5-3.7-1.3-3.8-3.5-3.8-3.5,1.6-3.5,3.8h0ZM149.2,74.4c0-1.2.5-2.5,1.9-2.5s1.9,1.2,1.9,2.5-.5,2.4-1.9,2.4-1.9-1.2-1.9-2.4h0ZM157.2,77.9h1.6v-5.8h2.1v-1.3h-5.9v1.3h2.1v5.8h0Z"/>
  <path d="M143.9,109.5h1.5v-4.8h0l3,4.8h1.6v-7.1h-1.5v4.8h0l-3-4.8h-1.6v7.1h0ZM150.7,109.5h1.6l.6-1.6h2.7l.5,1.6h1.6l-2.7-7.1h-1.6l-2.7,7.1h0ZM154.2,104.2h0l.9,2.6h-1.9l.9-2.6h0Z"/>
</svg>