<?xml version="1.0" encoding="UTF-8"?>
<svg id="Layer_1" xmlns="http://www.w3.org/2000/svg" xmlns:xlink="http://www.w3.org/1999/xlink" version="1.1" viewBox="0 0 1171 158.7">
  <!-- Generator: Adobe Illustrator 29.0.0, SVG Export Plug-In . SVG Version: 2.1.0 Build 186)  -->
  <defs>
    <style>
      .st0, .st1 {
        fill: none;
      }

      .st2 {
        clip-path: url(#clippath-1);
      }

      .st3 {
        clip-path: url(#clippath-3);
      }

      .st4 {
        clip-path: url(#clippath-2);
      }

      .st5 {
        fill: #fff;
      }

      .st6 {
        fill: #878787;
      }

      .st7 {
        fill: #e41f13;
      }

      .st1 {
        stroke: #000;
      }

      .st8 {
        clip-path: url(#clippath);
      }
    </style>
    <clipPath id="clippath">
      <rect class="st0" width="1170.8" height="158.7"/>
    </clipPath>
    <clipPath id="clippath-1">
      <rect class="st0" width="1170.8" height="158.7"/>
    </clipPath>
    <clipPath id="clippath-2">
      <rect class="st0" width="1170.8" height="158.7"/>
    </clipPath>
    <clipPath id="clippath-3">
      <rect class="st0" width="1170.8" height="158.7"/>
    </clipPath>
  </defs>
  <path class="st1" d="M303.8,64.9h769.5M303.8,94.7h769.5"/>
  <path d="M346.7,109.9h5v-1.3h-3.5v-5.8h-1.6v7.1h0ZM358.8,105.2c-.2-1.7-1.5-2.6-3.1-2.6s-3.5,1.7-3.5,3.8,1.3,3.7,3.5,3.7,3-1.1,3.1-2.9h-1.5c-.1.9-.7,1.6-1.6,1.6-1.4,0-1.9-1.2-1.9-2.4s.5-2.5,1.9-2.5,1.5.5,1.6,1.2h1.5Z"/>
  <path d="M615.5,102.8h-1.6l-1.6,5h0l-1.6-5h-1.6l2.3,7.1h1.8l2.4-7.1h0ZM622.4,102.8h-1.6v4.4c0,1.1-.4,1.5-1.5,1.5s-1.5-.8-1.5-1.5v-4.4h-1.6v4.4c0,1.9,1.1,2.9,3,2.9s3-.9,3-2.9v-4.4h0Z"/>
  <path d="M711,109.9h5.4v-1.3h-3.8v-1.8h3.5v-1.2h-3.5v-1.5h3.8v-1.3h-5.3v7.1h0ZM717.6,109.9h1.5v-4.8h0l3,4.8h1.6v-7.1h-1.5v4.8h0l-3-4.8h-1.6v7.1h0Z"/>
  <path d="M818.1,105.2c-.2-1.7-1.5-2.6-3.1-2.6s-3.5,1.7-3.5,3.8,1.3,3.7,3.5,3.7,3-1.1,3.1-2.9h-1.5c-.1.9-.7,1.6-1.6,1.6-1.4,0-1.9-1.2-1.9-2.4s.5-2.5,1.9-2.5,1.5.5,1.6,1.2h1.5ZM819.3,109.9h1.6v-2.8h1.6c.8,0,1.1.3,1.2,1.1,0,.6,0,1.3.2,1.7h1.6c-.3-.4-.3-1.2-.3-1.7,0-.7-.3-1.5-1-1.7h0c.8-.3,1.1-1,1.1-1.8s-.8-2-2.1-2h-3.8v7.1h0ZM820.9,104h1.7c.7,0,1.1.3,1.1,1s-.4,1-1.1,1h-1.7v-2h0Z"/>
  <path d="M913.5,109.9h1.6v-2.8h1.6c.8,0,1.1.3,1.2,1.1,0,.6,0,1.3.2,1.7h1.6c-.3-.4-.3-1.2-.3-1.7,0-.7-.3-1.5-1-1.7h0c.8-.3,1.1-1,1.1-1.8s-.8-2-2.1-2h-3.8v7.1h0ZM915.1,104h1.7c.7,0,1.1.3,1.1,1s-.4,1-1.1,1h-1.7v-2h0ZM920.8,109.9h5.4v-1.3h-3.8v-1.8h3.5v-1.2h-3.5v-1.5h3.8v-1.3h-5.3v7.1h0Z"/>
  <g>
    <g class="st8">
      <path d="M1013.6,109.9h5.4v-1.3h-3.8v-1.8h3.5v-1.2h-3.5v-1.5h3.8v-1.3h-5.3v7.1h0ZM1029,102.8h-1.5l-1.2,4.9h0l-1.2-4.9h-1.5l-1.2,4.9h0l-1.1-4.9h-1.6l1.9,7.1h1.6l1.2-4.9h0l1.2,4.9h1.6l1.9-7.1h0Z"/>
    </g>
    <g class="st2">
      <polygon points="1073.3 64.4 1073.3 95.2 1171 95.2 1171 64.4 1073.3 64.4"/>
    </g>
  </g>
  <path d="M333.7,83.6c-.2-1.7-1.5-2.6-3.1-2.6s-3.5,1.7-3.5,3.8,1.3,3.7,3.5,3.7,3-1.1,3.1-2.9h-1.5c-.1.9-.7,1.6-1.6,1.6-1.4,0-1.9-1.2-1.9-2.4s.5-2.5,1.9-2.5,1.5.5,1.6,1.2h1.5ZM334.6,84.8c0,2.1,1.3,3.7,3.5,3.7s3.5-1.7,3.5-3.7-1.3-3.8-3.5-3.8-3.5,1.7-3.5,3.8h0ZM336.2,84.8c0-1.2.5-2.5,1.9-2.5s1.9,1.2,1.9,2.5-.5,2.4-1.9,2.4-1.9-1.2-1.9-2.4h0ZM342.8,88.3h1.5v-4.8h0l3,4.8h1.6v-7.1h-1.5v4.8h0l-3-4.8h-1.6v7.1h0ZM356.6,83.6c-.2-1.7-1.5-2.6-3.1-2.6s-3.5,1.7-3.5,3.8,1.3,3.7,3.5,3.7,3-1.1,3.1-2.9h-1.5c-.1.9-.7,1.6-1.6,1.6-1.4,0-1.9-1.2-1.9-2.4s.5-2.5,1.9-2.5,1.5.5,1.6,1.2h1.5ZM357.8,88.3h5.4v-1.3h-3.9v-1.8h3.5v-1.2h-3.5v-1.5h3.8v-1.3h-5.3v7.1h0ZM364.5,88.3h1.6v-2.8h1.6c.8,0,1.1.3,1.2,1.1,0,.6,0,1.3.2,1.7h1.6c-.3-.4-.3-1.2-.3-1.7,0-.7-.3-1.5-1-1.7h0c.8-.3,1.1-1,1.1-1.8s-.8-2-2.1-2h-3.9v7.1h0ZM366,82.4h1.7c.7,0,1.1.3,1.1,1s-.4,1-1.1,1h-1.7v-2h0ZM371.8,88.3h1.5v-4.8h0l3,4.8h1.6v-7.1h-1.5v4.8h0l-3-4.8h-1.6v7.1h0Z"/>
  <path d="M337.1,78.4h5v-1.3h-3.5v-5.8h-1.6v7.1h0ZM343.1,78.4h5.4v-1.3h-3.9v-1.8h3.5v-1.2h-3.5v-1.5h3.8v-1.3h-5.3v7.1h0ZM349.1,78.4h1.6l.6-1.6h2.7l.5,1.6h1.6l-2.7-7.1h-1.6l-2.7,7.1h0ZM352.6,73h0l.9,2.6h-1.9l.9-2.6h0ZM356.3,76c0,1.8,1.5,2.5,3,2.5s3-1,3-2.3-1.6-2-2.1-2.1c-1.8-.5-2.1-.5-2.1-1.1s.6-.8,1.1-.8c.8,0,1.4.2,1.4,1.1h1.5c0-1.6-1.4-2.3-2.9-2.3s-2.7.7-2.7,2.2,1.1,1.8,2.1,2c1,.3,2.1.4,2.1,1.2s-.8.9-1.4.9c-.8,0-1.6-.4-1.6-1.3h-1.5ZM365,78.4h1.6v-5.8h2.1v-1.3h-5.9v1.3h2.1v5.8h0Z"/>
  <path d="M588.3,76.2h-1.6l-1.6,5h0l-1.6-5h-1.6l2.3,7.1h1.8l2.4-7.1h0ZM595.2,76.2h-1.6v4.4c0,1.1-.4,1.5-1.5,1.5s-1.5-.8-1.5-1.5v-4.4h-1.6v4.4c0,1.9,1.1,2.9,3,2.9s3-.9,3-2.9v-4.4h0ZM596.7,83.3h5v-1.3h-3.5v-5.8h-1.6v7.1h0ZM602.6,83.3h1.5v-4.8h0l3,4.8h1.6v-7.1h-1.5v4.8h0l-3-4.8h-1.6v7.1h0ZM610.2,83.3h5.4v-1.3h-3.8v-1.8h3.5v-1.2h-3.5v-1.5h3.8v-1.3h-5.3v7.1h0ZM616.8,83.3h1.6v-2.8h1.6c.8,0,1.1.3,1.2,1.1,0,.6,0,1.3.2,1.7h1.6c-.3-.4-.3-1.2-.3-1.7,0-.7-.3-1.5-1-1.7h0c.8-.3,1.1-1,1.1-1.8s-.8-2-2.1-2h-3.8v7.1h0ZM618.4,77.4h1.7c.7,0,1.1.3,1.1,1s-.4,1-1.1,1h-1.7v-2h0ZM623.6,83.3h1.6l.6-1.6h2.7l.5,1.6h1.6l-2.7-7.1h-1.6l-2.7,7.1h0ZM627,78h0l.9,2.6h-1.8l.9-2.6h0ZM632.9,80.2h1.7c.7,0,1.1.3,1.1,1s-.5.9-1.2.9h-1.7v-2h0ZM631.3,83.3h3.5c1.3,0,2.5-.6,2.5-2.1s-.4-1.6-1.3-1.8c.6-.3,1-.8,1-1.5,0-1.3-.9-1.8-2.3-1.8h-3.4v7.1h0ZM632.9,77.4h1.5c.6,0,1.1.1,1.1.8s-.4.8-1,.8h-1.6v-1.7h0ZM638.5,83.3h5v-1.3h-3.5v-5.8h-1.6v7.1h0ZM644.4,83.3h5.4v-1.3h-3.8v-1.8h3.5v-1.2h-3.5v-1.5h3.8v-1.3h-5.3v7.1h0Z"/>
  <path d="M682.1,83.3h5.4v-1.3h-3.8v-1.8h3.5v-1.2h-3.5v-1.5h3.8v-1.3h-5.3v7.1h0ZM688.8,83.3h1.5v-4.8h0l3,4.8h1.6v-7.1h-1.5v4.8h0l-3-4.8h-1.6v7.1h0ZM696.3,83.3h3.1c2.2,0,3.2-1.5,3.2-3.6s-1.4-3.5-3.2-3.5h-3.1v7.1h0ZM697.9,77.5h1.1c1.6,0,2.1.9,2.1,2.4s-.9,2.1-1.8,2.1h-1.4v-4.5h0ZM702.8,83.3h1.6l.6-1.6h2.7l.5,1.6h1.6l-2.7-7.1h-1.6l-2.7,7.1h0ZM706.3,78h0l.9,2.6h-1.8l.9-2.6h0ZM710.6,83.3h1.5v-4.8h0l3,4.8h1.6v-7.1h-1.5v4.8h0l-3-4.8h-1.6v7.1h0ZM723.4,83.3h1v-3.9h-3v1.2h1.6c0,1-.7,1.5-1.7,1.5s-1.9-1.2-1.9-2.4.5-2.5,1.9-2.5,1.3.4,1.5,1.2h1.5c-.2-1.6-1.5-2.5-3-2.5-2.2,0-3.5,1.6-3.5,3.8s1.3,3.7,3.5,3.7,1.4-.3,2-1l.2.8h0ZM725.8,83.3h5.4v-1.3h-3.8v-1.8h3.5v-1.2h-3.5v-1.5h3.8v-1.3h-5.3v7.1h0ZM732.5,83.3h1.6v-2.8h1.6c.8,0,1.1.3,1.2,1.1,0,.6,0,1.3.2,1.7h1.6c-.3-.4-.3-1.2-.3-1.7,0-.7-.3-1.5-1-1.7h0c.8-.3,1.1-1,1.1-1.8s-.8-2-2.1-2h-3.8v7.1h0ZM734,77.4h1.7c.7,0,1.1.3,1.1,1s-.4,1-1.1,1h-1.7v-2h0ZM739.8,83.3h5.4v-1.3h-3.8v-1.8h3.5v-1.2h-3.5v-1.5h3.8v-1.3h-5.3v7.1h0ZM746.5,83.3h3.1c2.2,0,3.2-1.5,3.2-3.6s-1.4-3.5-3.2-3.5h-3.1v7.1h0ZM748,77.5h1.1c1.6,0,2.1.9,2.1,2.4s-.9,2.1-1.8,2.1h-1.4v-4.5h0Z"/>
  <path d="M783.4,88.3h5.4v-1.3h-3.8v-1.8h3.5v-1.2h-3.5v-1.5h3.8v-1.3h-5.3v7.1h0ZM790,88.3h1.5v-4.8h0l3,4.8h1.6v-7.1h-1.5v4.8h0l-3-4.8h-1.6v7.1h0ZM797.5,88.3h3.1c2.2,0,3.2-1.5,3.2-3.6s-1.4-3.5-3.2-3.5h-3.1v7.1h0ZM799.1,82.5h1.1c1.6,0,2.1.9,2.1,2.4s-.9,2.1-1.8,2.1h-1.4v-4.5h0ZM804,88.3h1.6l.6-1.6h2.7l.5,1.6h1.6l-2.7-7.1h-1.6l-2.7,7.1h0ZM807.5,83h0l.9,2.6h-1.8l.9-2.6h0ZM811.8,88.3h1.5v-4.8h0l3,4.8h1.6v-7.1h-1.5v4.8h0l-3-4.8h-1.6v7.1h0ZM824.6,88.3h1v-3.9h-3v1.2h1.6c0,1-.7,1.5-1.7,1.5s-1.9-1.2-1.9-2.4.5-2.5,1.9-2.5,1.3.4,1.5,1.2h1.5c-.2-1.6-1.5-2.5-3-2.5-2.2,0-3.5,1.7-3.5,3.8s1.3,3.7,3.5,3.7,1.4-.3,2-1l.2.8h0ZM827,88.3h5.4v-1.3h-3.8v-1.8h3.5v-1.2h-3.5v-1.5h3.8v-1.3h-5.3v7.1h0ZM833.7,88.3h1.6v-2.8h1.6c.8,0,1.1.3,1.2,1.1,0,.6,0,1.3.2,1.7h1.6c-.3-.4-.3-1.2-.3-1.7,0-.7-.3-1.5-1-1.7h0c.8-.3,1.1-1,1.1-1.8s-.8-2-2.1-2h-3.8v7.1h0ZM835.3,82.4h1.7c.7,0,1.1.3,1.1,1s-.4,1-1.1,1h-1.7v-2h0ZM841,88.3h5.4v-1.3h-3.8v-1.8h3.5v-1.2h-3.5v-1.5h3.8v-1.3h-5.3v7.1h0ZM847.7,88.3h3.1c2.2,0,3.2-1.5,3.2-3.6s-1.4-3.5-3.2-3.5h-3.1v7.1h0ZM849.2,82.5h1.1c1.6,0,2.1.9,2.1,2.4s-.9,2.1-1.8,2.1h-1.4v-4.5h0Z"/>
  <path d="M796,73.6c-.2-1.6-1.5-2.6-3.1-2.6s-3.5,1.6-3.5,3.8,1.3,3.7,3.5,3.7,3-1.1,3.1-2.9h-1.5c-.1.9-.7,1.6-1.6,1.6-1.4,0-1.9-1.2-1.9-2.4s.5-2.5,1.9-2.5,1.5.5,1.6,1.2h1.5ZM797.2,78.4h1.6v-2.8h1.6c.8,0,1.1.3,1.2,1.1,0,.6,0,1.3.2,1.7h1.6c-.3-.4-.3-1.2-.3-1.7,0-.7-.3-1.5-1-1.7h0c.8-.3,1.1-1,1.1-1.8s-.8-2-2.1-2h-3.8v7.1h0ZM798.8,72.4h1.7c.7,0,1.1.3,1.1,1s-.4,1-1.1,1h-1.7v-2h0ZM804.5,78.4h1.6v-7.1h-1.6v7.1h0ZM809.1,78.4h1.6v-5.8h2.1v-1.3h-5.8v1.3h2.1v5.8h0ZM813.7,78.4h1.6v-7.1h-1.6v7.1h0ZM823,73.6c-.2-1.6-1.5-2.6-3.1-2.6s-3.5,1.6-3.5,3.8,1.3,3.7,3.5,3.7,3-1.1,3.1-2.9h-1.5c-.1.9-.7,1.6-1.6,1.6-1.4,0-1.9-1.2-1.9-2.4s.5-2.5,1.9-2.5,1.5.5,1.6,1.2h1.5ZM823.3,78.4h1.6l.6-1.6h2.7l.5,1.6h1.6l-2.7-7.1h-1.6l-2.7,7.1h0ZM826.8,73h0l.9,2.6h-1.8l.9-2.6h0ZM831,78.4h5v-1.3h-3.5v-5.8h-1.6v7.1h0ZM837,78.4h5v-1.3h-3.5v-5.8h-1.6v7.1h0ZM843.9,78.4h1.6v-2.7l2.7-4.4h-1.8l-1.7,2.8-1.7-2.8h-1.8l2.6,4.4v2.8h0Z"/>
  <path d="M898.4,88.3h5.4v-1.3h-3.8v-1.8h3.5v-1.2h-3.5v-1.5h3.8v-1.3h-5.3v7.1h0ZM904.4,88.3h1.8l1.6-2.5,1.6,2.5h1.9l-2.5-3.7,2.3-3.4h-1.7l-1.5,2.3-1.4-2.3h-1.8l2.3,3.4-2.5,3.7h0ZM913.7,88.3h1.6v-5.8h2.1v-1.3h-5.8v1.3h2.1v5.8h0ZM918.3,88.3h1.6v-7.1h-1.6v7.1h0ZM921.4,88.3h1.5v-4.8h0l3,4.8h1.6v-7.1h-1.5v4.8h0l-3-4.8h-1.6v7.1h0ZM935.2,83.6c-.2-1.7-1.5-2.6-3.1-2.6s-3.5,1.7-3.5,3.8,1.3,3.7,3.5,3.7,3-1.1,3.1-2.9h-1.5c-.1.9-.7,1.6-1.6,1.6-1.4,0-1.9-1.2-1.9-2.4s.5-2.5,1.9-2.5,1.5.5,1.6,1.2h1.5ZM937.9,88.3h1.6v-5.8h2.1v-1.3h-5.8v1.3h2.1v5.8h0Z"/>
  <path d="M888,78.4h1.6v-2.8h1.6c.8,0,1.1.3,1.2,1.1,0,.6,0,1.3.2,1.7h1.6c-.3-.4-.3-1.2-.3-1.7,0-.7-.3-1.5-1-1.7h0c.8-.3,1.1-1,1.1-1.8s-.8-2-2.1-2h-3.8v7.1h0ZM889.6,72.4h1.7c.7,0,1.1.3,1.1,1s-.4,1-1.1,1h-1.7v-2h0ZM895.4,78.4h5.4v-1.3h-3.8v-1.8h3.5v-1.2h-3.5v-1.5h3.8v-1.3h-5.3v7.1h0ZM907.2,78.4h1v-3.9h-3v1.2h1.6c0,1-.7,1.5-1.7,1.5s-1.9-1.2-1.9-2.4.5-2.5,1.9-2.5,1.3.4,1.5,1.2h1.5c-.2-1.6-1.5-2.5-3-2.5-2.2,0-3.5,1.6-3.5,3.8s1.3,3.7,3.5,3.7,1.4-.3,2-1l.2.8h0ZM909.7,78.4h1.6v-7.1h-1.6v7.1h0ZM912.4,74.8c0,2.1,1.3,3.7,3.5,3.7s3.5-1.6,3.5-3.7-1.3-3.8-3.5-3.8-3.5,1.6-3.5,3.8h0ZM914,74.8c0-1.2.5-2.5,1.9-2.5s1.9,1.2,1.9,2.5-.5,2.4-1.9,2.4-1.9-1.2-1.9-2.4h0ZM920.6,78.4h1.5v-4.8h0l3,4.8h1.6v-7.1h-1.5v4.8h0l-3-4.8h-1.6v7.1h0ZM927.4,78.4h1.6l.6-1.6h2.7l.5,1.6h1.6l-2.7-7.1h-1.6l-2.7,7.1h0ZM930.9,73h0l.9,2.6h-1.8l.9-2.6h0ZM935.2,78.4h5v-1.3h-3.5v-5.8h-1.6v7.1h0ZM941.1,78.4h5v-1.3h-3.5v-5.8h-1.6v7.1h0ZM948,78.4h1.6v-2.7l2.7-4.4h-1.8l-1.7,2.8-1.7-2.8h-1.8l2.6,4.4v2.8h0Z"/>
  <path d="M990.6,88.3h1.6v-7.1h-1.6v7.1h0ZM993.6,88.3h1.5v-4.8h0l3,4.8h1.6v-7.1h-1.5v4.8h0l-3-4.8h-1.6v7.1h0ZM1005.4,88.3h1.6v-5.8h2.1v-1.3h-5.8v1.3h2.1v5.8h0ZM1010,88.3h1.6v-3.1h2.9v3.1h1.6v-7.1h-1.6v2.7h-2.9v-2.7h-1.6v7.1h0ZM1017.5,88.3h5.4v-1.3h-3.8v-1.8h3.5v-1.2h-3.5v-1.5h3.8v-1.3h-5.3v7.1h0ZM1035.5,81.2h-1.5l-1.2,4.9h0l-1.2-4.9h-1.5l-1.2,4.9h0l-1.1-4.9h-1.6l1.9,7.1h1.6l1.2-4.9h0l1.2,4.9h1.6l1.9-7.1h0ZM1036.3,88.3h1.6v-7.1h-1.6v7.1h0ZM1039.4,88.3h5v-1.3h-3.5v-5.8h-1.6v7.1h0ZM1045.3,88.3h3.1c2.2,0,3.2-1.5,3.2-3.6s-1.4-3.5-3.2-3.5h-3.1v7.1h0ZM1046.9,82.5h1.1c1.6,0,2.1.9,2.1,2.4s-.9,2.1-1.8,2.1h-1.4v-4.5h0Z"/>
  <path d="M999.6,78.4h5.4v-1.3h-3.8v-1.8h3.5v-1.2h-3.5v-1.5h3.8v-1.3h-5.3v7.1h0ZM1005.6,78.4h1.8l1.6-2.5,1.6,2.5h1.9l-2.5-3.7,2.3-3.4h-1.7l-1.4,2.3-1.4-2.3h-1.8l2.3,3.4-2.5,3.7h0ZM1015,78.4h1.6v-5.8h2.1v-1.3h-5.8v1.3h2.2v5.8h0ZM1019.5,78.4h1.6v-7.1h-1.6v7.1h0ZM1022.6,78.4h1.5v-4.8h0l3,4.8h1.6v-7.1h-1.5v4.8h0l-3-4.8h-1.6v7.1h0ZM1036.4,73.6c-.2-1.6-1.5-2.6-3.1-2.6s-3.5,1.6-3.5,3.8,1.3,3.7,3.5,3.7,3-1.1,3.1-2.9h-1.5c-.1.9-.7,1.6-1.6,1.6-1.4,0-1.9-1.2-1.9-2.4s.5-2.5,1.9-2.5,1.5.5,1.6,1.2h1.5ZM1039.2,78.4h1.6v-5.8h2.1v-1.3h-5.8v1.3h2.1v5.8h0Z"/>
  <path class="st5" d="M1100.8,83.3h5.4v-1.3h-3.8v-1.8h3.5v-1.2h-3.5v-1.5h3.8v-1.3h-5.3v7.1h0ZM1106.9,83.3h1.8l1.6-2.5,1.6,2.5h1.9l-2.5-3.7,2.3-3.4h-1.7l-1.4,2.3-1.4-2.3h-1.8l2.3,3.4-2.5,3.7h0ZM1116.2,83.3h1.6v-5.8h2.1v-1.3h-5.8v1.3h2.1v5.8h0ZM1120.8,83.3h1.6v-7.1h-1.6v7.1h0ZM1123.8,83.3h1.5v-4.8h0l3,4.8h1.6v-7.1h-1.5v4.8h0l-3-4.8h-1.6v7.1h0ZM1137.6,78.6c-.2-1.6-1.5-2.6-3.1-2.6s-3.5,1.6-3.5,3.8,1.3,3.7,3.5,3.7,3-1.1,3.1-2.9h-1.5c-.1.9-.7,1.6-1.6,1.6-1.4,0-1.9-1.2-1.9-2.4s.5-2.5,1.9-2.5,1.5.5,1.6,1.2h1.5ZM1140.4,83.3h1.6v-5.8h2.1v-1.3h-5.8v1.3h2.1v5.8h0Z"/>
  <path d="M1116.1,109.9h5.4v-1.3h-3.8v-1.8h3.5v-1.2h-3.5v-1.5h3.8v-1.3h-5.3v7.1h0ZM1122.2,109.9h1.8l1.6-2.5,1.6,2.5h1.9l-2.5-3.7,2.3-3.4h-1.7l-1.4,2.3-1.4-2.3h-1.8l2.3,3.4-2.5,3.7h0Z"/>
  <polygon class="st6" points=".1 64 .1 94.8 97.8 94.8 97.8 64 .1 64"/>
  <polygon class="st6" points="101.4 64 101.4 94.8 199 94.8 199 64 101.4 64"/>
  <polygon class="st6" points="202.6 64 202.6 94.8 300.2 94.8 300.2 64 202.6 64"/>
  <path class="st5" d="M20,87.9h5.4v-1.3h-3.8v-1.8h3.5v-1.2h-3.5v-1.5h3.8v-1.3h-5.3v7.1h0ZM32.5,80.8h-1.6l-1.6,5h0l-1.6-5h-1.6l2.3,7.1h1.8l2.4-7.1h0ZM32,87.9h1.6l.6-1.6h2.7l.5,1.6h1.6l-2.7-7.1h-1.6l-2.7,7.1h0ZM35.5,82.6h0l.9,2.6h-1.8l.9-2.6h0ZM39.7,87.9h5.1v-1.3h-3.5v-5.8h-1.6v7.1h0ZM51.7,80.8h-1.6v4.4c0,1.1-.4,1.5-1.5,1.5s-1.5-.8-1.5-1.5v-4.4h-1.6v4.4c0,1.9,1.1,2.9,3,2.9s3.1-.9,3.1-2.9v-4.4h0ZM52.1,87.9h1.6l.6-1.6h2.7l.5,1.6h1.6l-2.7-7.1h-1.6l-2.7,7.1h0ZM55.6,82.6h0l.9,2.6h-1.8l.9-2.6h0ZM60.7,87.9h1.6v-5.8h2.1v-1.3h-5.8v1.3h2.1v5.8h0ZM65.2,87.9h5.4v-1.3h-3.8v-1.8h3.5v-1.2h-3.5v-1.5h3.8v-1.3h-5.3v7.1h0ZM71.9,87.9h3.1c2.2,0,3.2-1.5,3.2-3.6s-1.4-3.5-3.2-3.5h-3.1v7.1h0ZM73.5,82.1h1.1c1.6,0,2.1.9,2.1,2.4s-.9,2.1-1.8,2.1h-1.4v-4.5h0Z"/>
  <path class="st5" d="M39,77.9h1.5v-4.8h0l3,4.8h1.6v-7.1h-1.5v4.8h0l-3-4.8h-1.6v7.1h0ZM46.2,74.4c0,2.1,1.3,3.7,3.5,3.7s3.5-1.6,3.5-3.7-1.3-3.8-3.5-3.8-3.5,1.6-3.5,3.8h0ZM47.8,74.4c0-1.2.5-2.5,1.9-2.5s1.9,1.2,1.9,2.5-.5,2.4-1.9,2.4-1.9-1.2-1.9-2.4h0ZM55.8,77.9h1.6v-5.8h2.1v-1.3h-5.8v1.3h2.1v5.8h0Z"/>
  <path class="st5" d="M225.1,87.9h3.1c2.2,0,3.2-1.5,3.2-3.6s-1.4-3.5-3.2-3.5h-3.1v7.1h0ZM226.7,82.1h1.1c1.6,0,2.1.9,2.1,2.4s-.9,2.1-1.8,2.1h-1.4v-4.5h0ZM232.6,87.9h5.4v-1.3h-3.9v-1.8h3.5v-1.2h-3.5v-1.5h3.8v-1.3h-5.3v7.1h0ZM239.3,87.9h1.6v-3h3v-1.2h-3v-1.7h3.5v-1.3h-5v7.1h0ZM245.2,87.9h1.6v-7.1h-1.6v7.1h0ZM254.6,83.2c-.2-1.7-1.5-2.6-3.1-2.6s-3.5,1.7-3.5,3.8,1.3,3.7,3.5,3.7,3-1.1,3.1-2.9h-1.5c-.1.9-.7,1.6-1.6,1.6-1.4,0-1.9-1.2-1.9-2.4s.5-2.5,1.9-2.5,1.5.5,1.6,1.2h1.5ZM255.8,87.9h1.6v-7.1h-1.6v7.1h0ZM258.9,87.9h5.4v-1.3h-3.9v-1.8h3.5v-1.2h-3.5v-1.5h3.8v-1.3h-5.3v7.1h0ZM265.5,87.9h1.5v-4.8h0l3,4.8h1.6v-7.1h-1.5v4.8h0l-3-4.8h-1.6v7.1h0ZM274.5,87.9h1.6v-5.8h2.1v-1.3h-5.9v1.3h2.1v5.8h0Z"/>
  <path class="st5" d="M239.2,77.9h3.1c2.2,0,3.2-1.5,3.2-3.6s-1.4-3.5-3.2-3.5h-3.1v7.1h0ZM240.8,72.1h1.1c1.6,0,2.1.9,2.1,2.4s-.9,2.1-1.8,2.1h-1.4v-4.5h0ZM245.7,77.9h1.6l.6-1.6h2.7l.5,1.6h1.6l-2.7-7.1h-1.6l-2.7,7.1h0ZM249.2,72.6h0l.9,2.6h-1.9l.9-2.6h0ZM254.2,77.9h1.6v-5.8h2.1v-1.3h-5.9v1.3h2.1v5.8h0ZM257.4,77.9h1.6l.6-1.6h2.7l.5,1.6h1.6l-2.7-7.1h-1.6l-2.7,7.1h0ZM260.9,72.6h0l.9,2.6h-1.9l.9-2.6h0Z"/>
  <path d="M42.7,109.5h1.5v-4.8h0l3,4.8h1.6v-7.1h-1.5v4.8h0l-3-4.8h-1.6v7.1h0ZM50.2,109.5h5.4v-1.3h-3.8v-1.8h3.5v-1.2h-3.5v-1.5h3.8v-1.3h-5.3v7.1h0Z"/>
  <g>
    <g class="st4">
      <path d="M244.6,109.5h3.1c2.2,0,3.2-1.5,3.2-3.6s-1.4-3.5-3.2-3.5h-3.1v7.1h0ZM246.2,103.7h1.1c1.6,0,2.1.9,2.1,2.4s-.9,2.1-1.8,2.1h-1.4v-4.5h0ZM252.1,109.5h3.1c2.2,0,3.2-1.5,3.2-3.6s-1.4-3.5-3.2-3.5h-3.1v7.1h0ZM253.7,103.7h1.1c1.6,0,2.1.9,2.1,2.4s-.9,2.1-1.8,2.1h-1.4v-4.5h0Z"/>
    </g>
    <g class="st3">
      <path class="st7" d="M563.7,79.4V0h-80.7c-43.2.8-78,36-78,79.4s35.5,79.4,79.4,79.4,79.1-35.3,79.4-79h0v-.3s0,0,0,0h0Z"/>
    </g>
  </g>
  <path class="st5" d="M560.4,29.8c0-.6-.5-1-1-1s-1,.4-1,1,.4,1,1,1c.6,0,1-.4,1-1h0ZM560.2,29.8c0,.5-.3.9-.8.9s-.8-.4-.8-.9.3-.9.8-.9.8.4.8.9h0ZM559.1,29.8c0-.2.1-.4.4-.4s.3.1.3.2h.2c0-.3-.2-.4-.5-.4s-.6.3-.6.6.2.6.6.6.5-.2.5-.4h-.2c0,.1-.1.2-.3.2-.2,0-.4-.2-.4-.4h0ZM558.6,33c0-2.4-1.4-3.8-3.8-3.8h-3.3s0,7.7,0,7.7h3.3c2.3,0,3.8-1.4,3.8-3.9h0ZM556.6,33c0,1.5-.6,2.1-2.1,2.2h-.9v-4.2s.9,0,.9,0c1.4,0,2.1.7,2.1,2.1h0ZM555.8,15.5c1.5-1.5,1.9-3.6.7-4.8-1.1-1.2-3.3-.9-4.8.6s-1.9,3.6-.7,4.8c1.1,1.2,3.3.9,4.8-.6h0ZM551.3,11c1.5-1.5,1.9-3.6.7-4.8-1.1-1.2-3.3-.9-4.8.6s-1.9,3.6-.7,4.8c1.1,1.2,3.3.9,4.8-.6h0ZM544,12.2c1.5-1.5,1.9-3.6.7-4.8-1.1-1.2-3.3-.9-4.8.6s-1.9,3.6-.7,4.8c1.1,1.2,3.3.9,4.8-.6h0ZM542.5,13.9c-3.3,0-6,2.7-6,6.1,0,3.3,2.7,6,6,6,3.3,0,6-2.7,6-6.1,0-3.3-2.7-6-6-6h0ZM534.7,37.5c0-5.4-4.4-9.7-9.7-9.7-5.3,0-9.7,4.4-9.7,9.7,0,5.4,4.4,9.7,9.7,9.7,5.3,0,9.7-4.4,9.7-9.7h0ZM526.1,35.5h-1.3c0,0-.1-.1-.2-.2-.6-.6-1.3-.9-2.2-.9s-1.6.4-2.2.9c-.6.6-.9,1.4-.9,2.2s.3,1.6.9,2.2c.6.6,1.3.9,2.2.9s1.6-.4,2.2-.9c0,0,0,0,.1-.1h1.3c-.7,1.2-2.1,2.1-3.6,2.1-2.3,0-4.2-1.9-4.2-4.2s1.9-4.2,4.2-4.2c1.6,0,3,.9,3.7,2.2h0ZM523.8,37.6c0,0,0,.2,0,.2s0,.1,0,.2c0,0,0,.1.2.1,0,0,.2,0,.2,0s.2,0,.3-.1c0,0,.1-.2.1-.3h.4c0,.1,0,.2,0,.3,0,.1-.1.2-.2.2s-.2.1-.3.2c0,0-.2,0-.3,0s-.3,0-.4,0-.2-.1-.3-.2-.1-.2-.2-.3c0-.1,0-.3,0-.4s0-.3,0-.4c0-.1.1-.2.2-.3,0,0,.2-.2.3-.2s.2,0,.4,0,.2,0,.3,0c0,0,.2,0,.3.1,0,0,.1.1.2.2s0,.2,0,.3h-.4s0,0,0-.1c0,0,0,0,0-.1s0,0-.1,0c0,0,0,0-.2,0,0,0-.2,0-.2,0s-.1,0-.2.1,0,.1,0,.2c0,0,0,.2,0,.3h0ZM522.7,37.8v-1.2h.4v1.2c0,.3,0,.5-.2.6-.2.1-.3.2-.6.2s-.5,0-.6-.2c-.2-.1-.2-.3-.2-.6v-1.2h.4v1.2s0,.1,0,.2c0,0,0,.1,0,.1,0,0,0,0,.1.1,0,0,.1,0,.2,0,.2,0,.3,0,.3-.1,0,0,0-.2,0-.3h0ZM520.7,38.5v-2h.4v2h-.4ZM527,38.5h-.4l-.8-1.3h0v1.3h-.4v-2h.4l.8,1.3h0v-1.3h.4v2h0ZM534.6,16.4V6.7h-9.7c-5.3,0-9.6,4.3-9.6,9.7,0,5.3,4.3,9.6,9.7,9.6,5.3,0,9.6-4.3,9.6-9.7h0ZM540.8,29.2h-3.9s0,7.7,0,7.7h2v-2.8s1.5,0,1.5,0c.9,0,1.1.8,1.1,1.6,0,.2,0,1,.2,1.2h2c-.3-.3-.3-1.4-.3-1.7,0-.7-.3-1.6-1.1-1.8h0c.8-.3,1.2-1.1,1.2-1.9,0-1.5-1.3-2.1-2.7-2.1h0ZM540.5,30.8c.6,0,1,.3,1,.8s-.3.9-.9.9h-1.7v-1.7h1.6ZM539,37.7h-2v7.6s5.6,0,5.6,0v-1.7h-3.6s0-5.9,0-5.9h0ZM545.1,37.6h-2v7.6h2v-7.6h0ZM550.5,18.5c-1.5,1.5-1.9,3.6-.7,4.8,1.1,1.2,3.3.9,4.8-.6s1.9-3.6.7-4.8c-1.1-1.1-3.3-.9-4.8.6h0ZM546.5,35.1v-1.5h3.8v-1.6h-3.8s0-1.3,0-1.3h4.1v-1.6h-6.1s0,7.7,0,7.7h6.2v-1.7h-4.2ZM547.6,42.7h-2c0,2,1.6,2.7,3.3,2.7s3.3-.6,3.3-2.6-1.1-1.9-2.2-2.2c-1.1-.3-2.2-.4-2.2-1s.5-.6,1-.7c.6,0,1.3.2,1.2.9h2c0-1.7-1.5-2.5-3.1-2.5s-3.1.7-3.1,2.3c0,1.4,1.2,1.9,2.2,2.2,1.1.3,2.2.4,2.2,1.1s-.6.8-1.2.8c-.9,0-1.4-.3-1.5-1.2h0ZM552,39.4h2.3v5.9h2v-5.9s2.3,0,2.3,0v-1.7h-6.5s0,1.7,0,1.7h0Z"/>
  <polyline class="st5" points="546.3 71.9 554 79.4 546.3 86.9 550 86.9 557.6 79.4 550 71.9 546.3 71.9"/>
  <polyline class="st5" points="423.8 71.9 416.2 79.4 423.8 86.9 420.2 86.9 412.5 79.4 420.2 71.9 423.8 71.9"/>
  <path class="st5" d="M478.4,110h1.5v-5.4l3.1,5.4h1.6v-7.6h-1.5v5.3l-3-5.3h-1.7v7.6h0ZM485.5,102.5v1.3h2.3v6.2h1.6v-6.2h2.3v-1.3h-6.1Z"/>
  <path class="st5" d="M429.3,82.6v2.1h3.6v9.8h2.5v-9.8h3.5v-2.1h-9.6ZM442.8,94.4v-5.3h4.6v5.3h2.5v-11.9h-2.5v4.5h-4.6v-4.5h-2.5v11.9h2.5ZM457.5,84.6c.5,0,.9,0,1.1.2.5.2.7.7.7,1.5s-.2,1.1-.7,1.3c-.3.1-.7.2-1.2.2h-2.7v-3.2h2.7ZM458,82.6h-5.7v11.9h2.4v-4.7h2.4c.7,0,1.2.1,1.4.4s.4.8.4,1.5v1.1c0,.3,0,.7.1,1,0,.2,0,.4.2.6h2.8v-.3c-.2-.1-.4-.4-.5-.7,0-.2,0-.6,0-1.1v-.8c0-.8-.1-1.5-.3-1.9-.2-.4-.6-.7-1.2-.9.7-.2,1.1-.6,1.4-1.2s.4-1.1.4-1.7,0-.9-.2-1.2c-.2-.4-.3-.7-.6-1-.3-.4-.7-.6-1.1-.8-.4-.2-1.1-.3-1.9-.3h0ZM472.8,82.6h-8.7v11.9h9v-2.1h-6.6v-3h5.8v-2.1h-5.8v-2.5h6.3v-2.1h0ZM479.9,85.3l1.5,4.7h-3l1.5-4.7h0ZM474.3,94.4h2.6l.8-2.4h4.4l.8,2.4h2.7l-4.2-11.9h-2.8l-4.2,11.9h0ZM484.8,82.6v2.1h3.6v9.8h2.5v-9.8h3.5v-2.1h-9.6ZM504.6,82.6h-8.7v11.9h9v-2.1h-6.6v-3h5.8v-2.1h-5.8v-2.5h6.3v-2.1h0ZM506.8,94.4h2.3v-8.4l4.8,8.4h2.5v-11.9h-2.3v8.3l-4.7-8.3h-2.6v11.9h0ZM527.5,82.6h-8.7v11.9h9v-2.1h-6.6v-3h5.8v-2.1h-5.8v-2.5h6.3v-2.1h0ZM534.4,84.6c1.1,0,1.9.3,2.3,1,.4.7.6,1.6.6,2.8s-.1,1.6-.4,2.3c-.5,1.2-1.3,1.7-2.5,1.7h-2.3v-7.8h2.3ZM534.8,82.6h-5.1v11.9h5.1c1.8,0,3.1-.7,4-2.2.6-1.1,1-2.4,1-4s0-1.3-.2-2c-.2-.7-.4-1.3-.8-1.9-.5-.7-1.2-1.2-2-1.5-.5-.2-1.1-.2-1.8-.3h0Z"/>
  <path class="st5" d="M462.5,76.8h2.3v-8.4l4.8,8.4h2.5v-11.9h-2.3v8.3l-4.7-8.3h-2.6v11.9h0ZM483.2,65h-8.7v11.9h9v-2.1h-6.6v-3h5.8v-2.1h-5.8v-2.5h6.3v-2.1h0ZM490.4,67.7l1.5,4.7h-3l1.5-4.7h0ZM484.8,76.8h2.6l.8-2.4h4.4l.8,2.4h2.7l-4.2-11.9h-2.8l-4.2,11.9h0ZM502.7,67c.5,0,.9,0,1.2.2.5.2.7.7.7,1.5s-.2,1.1-.7,1.3c-.3.1-.7.2-1.2.2h-2.7v-3.2h2.7ZM503.2,65h-5.7v11.9h2.4v-4.7h2.4c.7,0,1.2.1,1.4.4s.4.8.4,1.5v1.1c0,.4,0,.7.1,1,0,.2,0,.4.2.6h2.7v-.3c-.2-.1-.4-.4-.5-.7,0-.2,0-.6,0-1.1v-.8c0-.8-.1-1.5-.3-1.9-.2-.4-.6-.7-1.2-.9.7-.2,1.1-.6,1.4-1.2.3-.5.4-1.1.4-1.7s0-.9-.2-1.2c-.2-.4-.3-.7-.6-1-.3-.4-.7-.6-1.1-.8-.4-.2-1.1-.3-1.9-.3h0Z"/>
  <path class="st5" d="M118.8,87.9h1.6l.6-1.6h2.7l.5,1.6h1.6l-2.7-7.1h-1.6l-2.7,7.1h0ZM122.2,82.6h0l.9,2.6h-1.9l.9-2.6h0ZM126.5,87.9h1.6v-2.6h1.6c1.8,0,2.5-1.1,2.5-2.3s-.7-2.3-2.5-2.3h-3.2v7.1h0ZM128.1,82h1.2c.7,0,1.4.2,1.4,1.1s-.6,1.1-1.4,1.1h-1.2v-2.1h0ZM133.1,87.9h1.6v-2.6h1.6c1.8,0,2.5-1.1,2.5-2.3s-.7-2.3-2.5-2.3h-3.2v7.1h0ZM134.7,82h1.2c.7,0,1.4.2,1.4,1.1s-.6,1.1-1.4,1.1h-1.2v-2.1h0ZM139.8,87.9h5.1v-1.3h-3.5v-5.8h-1.6v7.1h0ZM145.7,87.9h1.6v-7.1h-1.6v7.1h0ZM155.1,83.2c-.2-1.7-1.5-2.6-3.1-2.6s-3.5,1.7-3.5,3.8,1.3,3.7,3.5,3.7,3-1.1,3.1-2.9h-1.5c-.1.9-.7,1.6-1.6,1.6-1.4,0-1.9-1.2-1.9-2.4s.5-2.5,1.9-2.5,1.5.5,1.6,1.2h1.5ZM155.3,87.9h1.6l.6-1.6h2.7l.5,1.6h1.6l-2.7-7.1h-1.6l-2.7,7.1h0ZM158.8,82.6h0l.9,2.6h-1.9l.9-2.6h0ZM164.7,84.8h1.7c.7,0,1.1.3,1.1,1s-.5.9-1.2.9h-1.7v-2h0ZM163.1,87.9h3.5c1.3,0,2.5-.6,2.5-2.1s-.4-1.6-1.3-1.8c.6-.3,1-.8,1-1.5,0-1.3-.9-1.8-2.3-1.8h-3.4v7.1h0ZM164.7,82h1.5c.6,0,1.1.1,1.1.8s-.4.8-1,.8h-1.6v-1.7h0ZM170.3,87.9h5.1v-1.3h-3.5v-5.8h-1.6v7.1h0ZM176.2,87.9h5.4v-1.3h-3.9v-1.8h3.5v-1.2h-3.5v-1.5h3.8v-1.3h-5.3v7.1h0Z"/>
  <path class="st5" d="M140.4,77.9h1.5v-4.8h0l3,4.8h1.6v-7.1h-1.5v4.8h0l-3-4.8h-1.6v7.1h0ZM147.6,74.4c0,2.1,1.3,3.7,3.5,3.7s3.5-1.6,3.5-3.7-1.3-3.8-3.5-3.8-3.5,1.6-3.5,3.8h0ZM149.2,74.4c0-1.2.5-2.5,1.9-2.5s1.9,1.2,1.9,2.5-.5,2.4-1.9,2.4-1.9-1.2-1.9-2.4h0ZM157.2,77.9h1.6v-5.8h2.1v-1.3h-5.9v1.3h2.1v5.8h0Z"/>
  <path d="M143.9,109.5h1.5v-4.8h0l3,4.8h1.6v-7.1h-1.5v4.8h0l-3-4.8h-1.6v7.1h0ZM150.7,109.5h1.6l.6-1.6h2.7l.5,1.6h1.6l-2.7-7.1h-1.6l-2.7,7.1h0ZM154.2,104.2h0l.9,2.6h-1.9l.9-2.6h0Z"/>
</svg>