<?xml version="1.0" encoding="UTF-8"?>
<svg id="Layer_1" xmlns="http://www.w3.org/2000/svg" xmlns:xlink="http://www.w3.org/1999/xlink" version="1.1" viewBox="0 0 1170.9 158.7">
  <!-- Generator: Adobe Illustrator 29.0.0, SVG Export Plug-In . SVG Version: 2.1.0 Build 186)  -->
  <defs>
    <style>
      .st0, .st1 {
        fill: none;
      }

      .st2 {
        clip-path: url(#clippath-1);
      }

      .st3 {
        clip-path: url(#clippath-3);
      }

      .st4 {
        clip-path: url(#clippath-2);
      }

      .st5 {
        fill: #fff;
      }

      .st6 {
        fill: #878787;
      }

      .st7 {
        fill: #e41f13;
      }

      .st1 {
        stroke: #000;
      }

      .st8 {
        clip-path: url(#clippath);
      }
    </style>
    <clipPath id="clippath">
      <rect class="st0" x=".1" width="1170.8" height="158.7"/>
    </clipPath>
    <clipPath id="clippath-1">
      <rect class="st0" x=".1" width="1170.8" height="158.7"/>
    </clipPath>
    <clipPath id="clippath-2">
      <rect class="st0" x=".1" width="1170.8" height="158.7"/>
    </clipPath>
    <clipPath id="clippath-3">
      <rect class="st0" x=".1" width="1170.8" height="158.7"/>
    </clipPath>
  </defs>
  <path class="st1" d="M303.9,64.9h769.5M303.9,94.7h769.5"/>
  <path d="M346.5,109.5h5v-1.3h-3.5v-5.8h-1.6v7.1h0ZM358.7,104.8c-.2-1.7-1.5-2.6-3.1-2.6s-3.5,1.7-3.5,3.8,1.3,3.7,3.5,3.7,3-1.1,3.1-2.9h-1.5c-.1.9-.7,1.6-1.6,1.6-1.4,0-1.9-1.2-1.9-2.4s.5-2.5,1.9-2.5,1.5.5,1.6,1.2h1.5Z"/>
  <path d="M447.6,109.5h1.5v-4.8h0l3,4.8h1.6v-7.1h-1.5v4.8h0l-3-4.8h-1.6v7.1h0ZM456.6,109.5h1.6v-5.8h2.1v-1.3h-5.9v1.3h2.1v5.8h0Z"/>
  <path d="M554.4,102.4h-1.6l-1.6,5h0l-1.6-5h-1.6l2.3,7.1h1.8l2.4-7.1h0ZM561.2,102.4h-1.6v4.4c0,1.1-.4,1.5-1.5,1.5s-1.5-.8-1.5-1.5v-4.4h-1.6v4.4c0,1.9,1.1,2.9,3,2.9s3-.9,3-2.9v-4.4h0Z"/>
  <path d="M649.8,109.5h5.4v-1.3h-3.8v-1.8h3.5v-1.2h-3.5v-1.5h3.8v-1.3h-5.3v7.1h0ZM656.4,109.5h1.5v-4.8h0l3,4.8h1.6v-7.1h-1.5v4.8h0l-3-4.8h-1.6v7.1h0Z"/>
  <path d="M757,104.8c-.2-1.7-1.5-2.6-3.1-2.6s-3.5,1.7-3.5,3.8,1.3,3.7,3.5,3.7,3-1.1,3.1-2.9h-1.5c-.1.9-.7,1.6-1.6,1.6-1.4,0-1.9-1.2-1.9-2.4s.5-2.5,1.9-2.5,1.5.5,1.6,1.2h1.5ZM758.2,109.5h1.6v-2.8h1.6c.8,0,1.1.3,1.2,1.1,0,.6,0,1.3.2,1.7h1.6c-.3-.4-.3-1.2-.3-1.7,0-.7-.3-1.5-1-1.7h0c.8-.3,1.1-1,1.1-1.8s-.8-2-2.1-2h-3.8v7.1h0ZM759.7,103.6h1.7c.7,0,1.1.3,1.1,1s-.4,1-1.1,1h-1.7v-2h0Z"/>
  <path d="M1013.4,109.5h5.4v-1.3h-3.8v-1.8h3.5v-1.2h-3.5v-1.5h3.8v-1.3h-5.3v7.1h0ZM1028.9,102.4h-1.5l-1.2,4.9h0l-1.2-4.9h-1.5l-1.2,4.9h0l-1.1-4.9h-1.6l1.9,7.1h1.6l1.2-4.9h0l1.2,4.9h1.6l1.9-7.1h0Z"/>
  <polygon points="1073.2 64 1073.2 94.8 1170.9 94.8 1170.9 64 1073.2 64"/>
  <path d="M333.6,83.2c-.2-1.7-1.5-2.6-3.1-2.6s-3.5,1.7-3.5,3.8,1.3,3.7,3.5,3.7,3-1.1,3.1-2.9h-1.5c-.1.9-.7,1.6-1.6,1.6-1.4,0-1.9-1.2-1.9-2.4s.5-2.5,1.9-2.5,1.5.5,1.6,1.2h1.5ZM334.5,84.4c0,2.1,1.3,3.7,3.5,3.7s3.5-1.7,3.5-3.7-1.3-3.8-3.5-3.8c-2.2,0-3.5,1.7-3.5,3.8h0ZM336,84.4c0-1.2.5-2.5,1.9-2.5s1.9,1.2,1.9,2.5-.5,2.4-1.9,2.4-1.9-1.2-1.9-2.4h0ZM342.7,88h1.5v-4.8h0l3,4.8h1.6v-7.1h-1.5v4.8h0l-3-4.8h-1.6v7.1h0ZM356.4,83.2c-.2-1.7-1.5-2.6-3.1-2.6s-3.5,1.7-3.5,3.8,1.3,3.7,3.5,3.7,3-1.1,3.1-2.9h-1.5c-.1.9-.7,1.6-1.6,1.6-1.4,0-1.9-1.2-1.9-2.4s.5-2.5,1.9-2.5,1.5.5,1.6,1.2h1.5ZM357.7,88h5.4v-1.3h-3.9v-1.8h3.5v-1.2h-3.5v-1.5h3.8v-1.3h-5.3v7.1h0ZM364.3,88h1.6v-2.8h1.6c.8,0,1.1.3,1.2,1.1,0,.6,0,1.3.2,1.7h1.6c-.3-.4-.3-1.2-.3-1.7,0-.7-.3-1.5-1-1.7h0c.8-.3,1.1-1,1.1-1.8s-.8-2-2.1-2h-3.9v7.1h0ZM365.9,82h1.7c.7,0,1.1.3,1.1,1s-.4,1-1.1,1h-1.7v-2h0ZM371.6,88h1.5v-4.8h0l3,4.8h1.6v-7.1h-1.5v4.8h0l-3-4.8h-1.6v7.1h0Z"/>
  <path d="M337,78h5v-1.3h-3.5v-5.8h-1.6v7.1h0ZM342.9,78h5.4v-1.3h-3.9v-1.8h3.5v-1.2h-3.5v-1.5h3.8v-1.3h-5.3v7.1h0ZM349,78h1.6l.6-1.6h2.7l.5,1.6h1.6l-2.7-7.1h-1.6l-2.7,7.1h0ZM352.5,72.6h0l.9,2.6h-1.9l.9-2.6h0ZM356.2,75.6c0,1.8,1.5,2.5,3,2.5s3-1,3-2.3-1.6-2-2.1-2.1c-1.8-.5-2.1-.5-2.1-1.1s.6-.8,1.1-.8c.8,0,1.4.2,1.4,1.1h1.5c0-1.6-1.4-2.3-2.9-2.3s-2.7.7-2.7,2.2,1.1,1.8,2.1,2c1,.3,2.1.4,2.1,1.2s-.8.9-1.4.9c-.8,0-1.6-.4-1.6-1.3h-1.5ZM364.8,78h1.6v-5.8h2.1v-1.3h-5.9v1.3h2.1v5.8h0Z"/>
  <path d="M421.8,88h1.6v-5.8h2.1v-1.3h-5.9v1.3h2.1v5.8h0ZM426.3,88h1.6v-3.1h2.9v3.1h1.6v-7.1h-1.6v2.7h-2.9v-2.7h-1.6v7.1h0ZM433.9,88h1.6v-2.8h1.6c.8,0,1.1.3,1.2,1.1,0,.6,0,1.3.2,1.7h1.6c-.3-.4-.3-1.2-.3-1.7,0-.7-.3-1.5-1-1.7h0c.8-.3,1.1-1,1.1-1.8s-.8-2-2.1-2h-3.9v7.1h0ZM435.4,82h1.7c.7,0,1.1.3,1.1,1s-.4,1-1.1,1h-1.7v-2h0ZM441.2,88h5.4v-1.3h-3.9v-1.8h3.5v-1.2h-3.5v-1.5h3.8v-1.3h-5.3v7.1h0ZM447.2,88h1.6l.6-1.6h2.7l.5,1.6h1.6l-2.7-7.1h-1.6l-2.7,7.1h0ZM450.7,82.6h0l.9,2.6h-1.9l.9-2.6h0ZM455.8,88h1.6v-5.8h2.1v-1.3h-5.9v1.3h2.1v5.8h0ZM460.4,88h5.4v-1.3h-3.8v-1.8h3.5v-1.2h-3.5v-1.5h3.8v-1.3h-5.3v7.1h0ZM467,88h1.5v-4.8h0l3,4.8h1.6v-7.1h-1.5v4.8h0l-3-4.8h-1.6v7.1h0ZM474.5,88h5.4v-1.3h-3.8v-1.8h3.5v-1.2h-3.5v-1.5h3.8v-1.3h-5.3v7.1h0ZM481.2,88h3.1c2.2,0,3.2-1.5,3.2-3.6s-1.4-3.5-3.2-3.5h-3.1v7.1h0ZM482.8,82.1h1.1c1.6,0,2.1.9,2.1,2.4s-.9,2.1-1.8,2.1h-1.4v-4.5h0Z"/>
  <path d="M440.1,78h1.5v-4.8h0l3,4.8h1.6v-7.1h-1.5v4.8h0l-3-4.8h-1.6v7.1h0ZM447.7,78h5.4v-1.3h-3.9v-1.8h3.5v-1.2h-3.5v-1.5h3.8v-1.3h-5.3v7.1h0ZM453.7,78h1.6l.6-1.6h2.7l.5,1.6h1.6l-2.7-7.1h-1.6l-2.7,7.1h0ZM457.2,72.6h0l.9,2.6h-1.9l.9-2.6h0ZM461.4,78h1.6v-2.8h1.6c.8,0,1.1.3,1.2,1.1,0,.6,0,1.3.2,1.7h1.6c-.3-.4-.3-1.2-.3-1.7,0-.7-.3-1.5-1-1.7h0c.8-.3,1.1-1,1.1-1.8s-.8-2-2.1-2h-3.8v7.1h0ZM463,72h1.7c.7,0,1.1.3,1.1,1s-.4,1-1.1,1h-1.7v-2h0Z"/>
  <path d="M527.2,75.8h-1.6l-1.6,5h0l-1.6-5h-1.6l2.3,7.1h1.8l2.4-7.1h0ZM534,75.8h-1.6v4.4c0,1.1-.4,1.5-1.5,1.5s-1.5-.8-1.5-1.5v-4.4h-1.6v4.4c0,1.9,1.1,2.9,3,2.9s3-.9,3-2.9v-4.4h0ZM535.5,83h5v-1.3h-3.5v-5.8h-1.6v7.1h0ZM541.4,83h1.5v-4.8h0l3,4.8h1.6v-7.1h-1.5v4.8h0l-3-4.8h-1.6v7.1h0ZM549,83h5.4v-1.3h-3.8v-1.8h3.5v-1.2h-3.5v-1.5h3.8v-1.3h-5.3v7.1h0ZM555.6,83h1.6v-2.8h1.6c.8,0,1.1.3,1.2,1.1,0,.6,0,1.3.2,1.7h1.6c-.3-.4-.3-1.2-.3-1.7,0-.7-.3-1.5-1-1.7h0c.8-.3,1.1-1,1.1-1.8s-.8-2-2.1-2h-3.8v7.1h0ZM557.2,77h1.7c.7,0,1.1.3,1.1,1s-.4,1-1.1,1h-1.7v-2h0ZM562.4,83h1.6l.6-1.6h2.7l.5,1.6h1.6l-2.7-7.1h-1.6l-2.7,7.1h0ZM565.9,77.6h0l.9,2.6h-1.8l.9-2.6h0ZM571.7,79.8h1.7c.7,0,1.1.3,1.1,1s-.5.9-1.2.9h-1.7v-2h0ZM570.1,83h3.5c1.3,0,2.5-.6,2.5-2.1s-.4-1.6-1.3-1.8c.6-.3,1-.8,1-1.5,0-1.3-.9-1.8-2.3-1.8h-3.4v7.1h0ZM571.7,77h1.5c.6,0,1.1.1,1.1.8s-.4.9-1,.9h-1.6v-1.7h0ZM577.3,83h5v-1.3h-3.5v-5.8h-1.6v7.1h0ZM583.3,83h5.4v-1.3h-3.8v-1.8h3.5v-1.2h-3.5v-1.5h3.8v-1.3h-5.3v7.1h0Z"/>
  <path d="M621,83h5.4v-1.3h-3.8v-1.8h3.5v-1.2h-3.5v-1.5h3.8v-1.3h-5.3v7.1h0ZM627.6,83h1.5v-4.8h0l3,4.8h1.6v-7.1h-1.5v4.8h0l-3-4.8h-1.6v7.1h0ZM635.2,83h3.1c2.2,0,3.2-1.5,3.2-3.6s-1.4-3.5-3.2-3.5h-3.1v7.1h0ZM636.7,77.1h1.1c1.6,0,2.1.9,2.1,2.4s-.9,2.1-1.8,2.1h-1.4v-4.5h0ZM641.6,83h1.6l.6-1.6h2.7l.5,1.6h1.6l-2.7-7.1h-1.6l-2.7,7.1h0ZM645.1,77.6h0l.9,2.6h-1.8l.9-2.6h0ZM649.4,83h1.5v-4.8h0l3,4.8h1.6v-7.1h-1.5v4.8h0l-3-4.8h-1.6v7.1h0ZM662.2,83h1v-3.9h-3v1.2h1.6c0,1-.7,1.5-1.7,1.5s-1.9-1.2-1.9-2.4.5-2.5,1.9-2.5,1.3.4,1.5,1.2h1.5c-.2-1.6-1.5-2.5-3-2.5-2.2,0-3.5,1.6-3.5,3.8s1.3,3.7,3.5,3.7,1.4-.3,2-1l.2.8h0ZM664.6,83h5.4v-1.3h-3.8v-1.8h3.5v-1.2h-3.5v-1.5h3.8v-1.3h-5.3v7.1h0ZM671.3,83h1.6v-2.8h1.6c.8,0,1.1.3,1.2,1.1,0,.6,0,1.3.2,1.7h1.6c-.3-.4-.3-1.2-.3-1.7,0-.7-.3-1.5-1-1.7h0c.8-.3,1.1-1,1.1-1.8s-.8-2-2.1-2h-3.8v7.1h0ZM672.9,77h1.7c.7,0,1.1.3,1.1,1s-.4,1-1.1,1h-1.7v-2h0ZM678.6,83h5.4v-1.3h-3.8v-1.8h3.5v-1.2h-3.5v-1.5h3.8v-1.3h-5.3v7.1h0ZM685.3,83h3.1c2.2,0,3.2-1.5,3.2-3.6s-1.4-3.5-3.2-3.5h-3.1v7.1h0ZM686.8,77.1h1.1c1.6,0,2.1.9,2.1,2.4s-.9,2.1-1.8,2.1h-1.4v-4.5h0Z"/>
  <path d="M722.2,88h5.4v-1.3h-3.8v-1.8h3.5v-1.2h-3.5v-1.5h3.8v-1.3h-5.3v7.1h0ZM728.8,88h1.5v-4.8h0l3,4.8h1.6v-7.1h-1.5v4.8h0l-3-4.8h-1.6v7.1h0ZM736.4,88h3.1c2.2,0,3.2-1.5,3.2-3.6s-1.4-3.5-3.2-3.5h-3.1v7.1h0ZM737.9,82.1h1.1c1.6,0,2.1.9,2.1,2.4s-.9,2.1-1.8,2.1h-1.4v-4.5h0ZM742.8,88h1.6l.6-1.6h2.7l.5,1.6h1.6l-2.7-7.1h-1.6l-2.7,7.1h0ZM746.3,82.6h0l.9,2.6h-1.8l.9-2.6h0ZM750.6,88h1.5v-4.8h0l3,4.8h1.6v-7.1h-1.5v4.8h0l-3-4.8h-1.6v7.1h0ZM763.4,88h1v-3.9h-3v1.2h1.6c0,1-.7,1.5-1.7,1.5s-1.9-1.2-1.9-2.4.5-2.5,1.9-2.5,1.3.4,1.5,1.2h1.5c-.2-1.6-1.5-2.5-3-2.5-2.2,0-3.5,1.7-3.5,3.8s1.3,3.7,3.5,3.7,1.4-.3,2-1l.2.8h0ZM765.8,88h5.4v-1.3h-3.8v-1.8h3.5v-1.2h-3.5v-1.5h3.8v-1.3h-5.3v7.1h0ZM772.5,88h1.6v-2.8h1.6c.8,0,1.1.3,1.2,1.1,0,.6,0,1.3.2,1.7h1.6c-.3-.4-.3-1.2-.3-1.7,0-.7-.3-1.5-1-1.7h0c.8-.3,1.1-1,1.1-1.8s-.8-2-2.1-2h-3.8v7.1h0ZM774.1,82h1.7c.7,0,1.1.3,1.1,1s-.4,1-1.1,1h-1.7v-2h0ZM779.8,88h5.4v-1.3h-3.8v-1.8h3.5v-1.2h-3.5v-1.5h3.8v-1.3h-5.3v7.1h0ZM786.5,88h3.1c2.2,0,3.2-1.5,3.2-3.6s-1.4-3.5-3.2-3.5h-3.1v7.1h0ZM788,82.1h1.1c1.6,0,2.1.9,2.1,2.4s-.9,2.1-1.8,2.1h-1.4v-4.5h0Z"/>
  <path d="M734.8,73.2c-.2-1.6-1.5-2.6-3.1-2.6s-3.5,1.6-3.5,3.8,1.3,3.7,3.5,3.7,3-1.1,3.1-2.9h-1.5c-.1.9-.7,1.6-1.6,1.6-1.4,0-1.9-1.2-1.9-2.4s.5-2.5,1.9-2.5,1.5.5,1.6,1.2h1.5ZM736,78h1.6v-2.8h1.6c.8,0,1.1.3,1.2,1.1,0,.6,0,1.3.2,1.7h1.6c-.3-.4-.3-1.2-.3-1.7,0-.7-.3-1.5-1-1.7h0c.8-.3,1.1-1,1.1-1.8s-.8-2-2.1-2h-3.8v7.1h0ZM737.6,72h1.7c.7,0,1.1.3,1.1,1s-.4,1-1.1,1h-1.7v-2h0ZM743.4,78h1.6v-7.1h-1.6v7.1h0ZM747.9,78h1.6v-5.8h2.1v-1.3h-5.8v1.3h2.1v5.8h0ZM752.5,78h1.6v-7.1h-1.6v7.1h0ZM761.8,73.2c-.2-1.6-1.5-2.6-3.1-2.6s-3.5,1.6-3.5,3.8,1.3,3.7,3.5,3.7,3-1.1,3.1-2.9h-1.5c-.1.9-.7,1.6-1.6,1.6-1.4,0-1.9-1.2-1.9-2.4s.5-2.5,1.9-2.5,1.5.5,1.6,1.2h1.5ZM762.1,78h1.6l.6-1.6h2.7l.5,1.6h1.6l-2.7-7.1h-1.6l-2.7,7.1h0ZM765.6,72.6h0l.9,2.6h-1.8l.9-2.6h0ZM769.9,78h5v-1.3h-3.5v-5.8h-1.6v7.1h0ZM775.8,78h5v-1.3h-3.5v-5.8h-1.6v7.1h0ZM782.7,78h1.6v-2.7l2.7-4.4h-1.8l-1.7,2.8-1.7-2.8h-1.8l2.6,4.4v2.8h0Z"/>
  <path d="M990.4,88h1.6v-7.1h-1.6v7.1h0ZM993.5,88h1.5v-4.8h0l3,4.8h1.6v-7.1h-1.5v4.8h0l-3-4.8h-1.6v7.1h0ZM1005.3,88h1.6v-5.8h2.1v-1.3h-5.8v1.3h2.1v5.8h0ZM1009.8,88h1.6v-3.1h2.9v3.1h1.6v-7.1h-1.6v2.7h-2.9v-2.7h-1.6v7.1h0ZM1017.4,88h5.4v-1.3h-3.8v-1.8h3.5v-1.2h-3.5v-1.5h3.8v-1.3h-5.3v7.1h0ZM1035.3,80.8h-1.5l-1.2,4.9h0l-1.2-4.9h-1.5l-1.2,4.9h0l-1.1-4.9h-1.6l1.9,7.1h1.6l1.2-4.9h0l1.2,4.9h1.6l1.9-7.1h0ZM1036.2,88h1.6v-7.1h-1.6v7.1h0ZM1039.2,88h5.1v-1.3h-3.5v-5.8h-1.6v7.1h0ZM1045.2,88h3.1c2.2,0,3.2-1.5,3.2-3.6s-1.4-3.5-3.2-3.5h-3.1v7.1h0ZM1046.8,82.1h1.1c1.6,0,2.1.9,2.1,2.4s-.9,2.1-1.8,2.1h-1.4v-4.5h0Z"/>
  <path d="M999.5,78h5.4v-1.3h-3.8v-1.8h3.5v-1.2h-3.5v-1.5h3.8v-1.3h-5.3v7.1h0ZM1005.5,78h1.8l1.6-2.5,1.6,2.5h1.9l-2.5-3.7,2.3-3.4h-1.7l-1.4,2.3-1.4-2.3h-1.8l2.3,3.4-2.5,3.7h0ZM1014.8,78h1.6v-5.8h2.1v-1.3h-5.8v1.3h2.1v5.8h0ZM1019.4,78h1.6v-7.1h-1.6v7.1h0ZM1022.5,78h1.5v-4.8h0l3,4.8h1.6v-7.1h-1.5v4.8h0l-3-4.8h-1.6v7.1h0ZM1036.3,73.2c-.2-1.6-1.5-2.6-3.1-2.6s-3.5,1.6-3.5,3.8,1.3,3.7,3.5,3.7,3-1.1,3.1-2.9h-1.5c-.1.9-.7,1.6-1.6,1.6-1.4,0-1.9-1.2-1.9-2.4s.5-2.5,1.9-2.5,1.5.5,1.6,1.2h1.5ZM1039,78h1.6v-5.8h2.1v-1.3h-5.8v1.3h2.1v5.8h0Z"/>
  <path class="st5" d="M1100.7,83h5.4v-1.3h-3.8v-1.8h3.5v-1.2h-3.5v-1.5h3.8v-1.3h-5.3v7.1h0ZM1106.7,83h1.8l1.6-2.5,1.6,2.5h1.9l-2.5-3.7,2.3-3.4h-1.7l-1.4,2.3-1.4-2.3h-1.8l2.3,3.4-2.5,3.7h0ZM1116,83h1.6v-5.8h2.1v-1.3h-5.8v1.3h2.1v5.8h0ZM1120.6,83h1.6v-7.1h-1.6v7.1h0ZM1123.7,83h1.5v-4.8h0l3,4.8h1.6v-7.1h-1.5v4.8h0l-3-4.8h-1.6v7.1h0ZM1137.5,78.2c-.2-1.6-1.5-2.6-3.1-2.6s-3.5,1.6-3.5,3.8,1.3,3.7,3.5,3.7,3-1.1,3.1-2.9h-1.5c-.1.9-.7,1.6-1.6,1.6-1.4,0-1.9-1.2-1.9-2.4s.5-2.5,1.9-2.5,1.5.5,1.6,1.2h1.5ZM1140.2,83h1.6v-5.8h2.1v-1.3h-5.8v1.3h2.1v5.8h0Z"/>
  <g>
    <g class="st8">
      <path d="M1116,109.5h5.4v-1.3h-3.8v-1.8h3.5v-1.2h-3.5v-1.5h3.8v-1.3h-5.3v7.1h0ZM1122,109.5h1.8l1.6-2.5,1.6,2.5h1.9l-2.5-3.7,2.3-3.4h-1.7l-1.4,2.3-1.4-2.3h-1.8l2.3,3.4-2.5,3.7h0Z"/>
    </g>
    <g class="st2">
      <polygon class="st6" points="0 64 0 94.8 97.7 94.8 97.7 64 0 64"/>
    </g>
  </g>
  <polygon class="st6" points="101.2 64 101.2 94.8 198.9 94.8 198.9 64 101.2 64"/>
  <polygon class="st6" points="202.4 64 202.4 94.8 300.1 94.8 300.1 64 202.4 64"/>
  <path class="st5" d="M19.9,87.9h5.4v-1.3h-3.8v-1.8h3.5v-1.2h-3.5v-1.5h3.8v-1.3h-5.3v7.1h0ZM32.3,80.8h-1.6l-1.6,5h0l-1.6-5h-1.6l2.3,7.1h1.8l2.4-7.1h0ZM31.8,87.9h1.6l.6-1.6h2.7l.5,1.6h1.6l-2.7-7.1h-1.6l-2.7,7.1h0ZM35.3,82.6h0l.9,2.6h-1.8l.9-2.6h0ZM39.6,87.9h5.1v-1.3h-3.5v-5.8h-1.6v7.1h0ZM51.5,80.8h-1.6v4.4c0,1.1-.4,1.5-1.5,1.5s-1.5-.8-1.5-1.5v-4.4h-1.6v4.4c0,1.9,1.1,2.9,3,2.9s3.1-.9,3.1-2.9v-4.4h0ZM52,87.9h1.6l.6-1.6h2.7l.5,1.6h1.6l-2.7-7.1h-1.6l-2.7,7.1h0ZM55.5,82.6h0l.9,2.6h-1.8l.9-2.6h0ZM60.5,87.9h1.6v-5.8h2.1v-1.3h-5.8v1.3h2.1v5.8h0ZM65.1,87.9h5.4v-1.3h-3.8v-1.8h3.5v-1.2h-3.5v-1.5h3.8v-1.3h-5.3v7.1h0ZM71.8,87.9h3.1c2.2,0,3.2-1.5,3.2-3.6s-1.4-3.5-3.2-3.5h-3.1v7.1h0ZM73.3,82.1h1.1c1.6,0,2.1.9,2.1,2.4s-.9,2.1-1.8,2.1h-1.4v-4.5h0Z"/>
  <path class="st5" d="M38.9,77.9h1.5v-4.8h0l3,4.8h1.6v-7.1h-1.5v4.8h0l-3-4.8h-1.6v7.1h0ZM46.1,74.4c0,2.1,1.3,3.7,3.5,3.7s3.5-1.6,3.5-3.7-1.3-3.8-3.5-3.8-3.5,1.6-3.5,3.8h0ZM47.6,74.4c0-1.2.5-2.5,1.9-2.5s1.9,1.2,1.9,2.5-.5,2.4-1.9,2.4-1.9-1.2-1.9-2.4h0ZM55.7,77.9h1.6v-5.8h2.1v-1.3h-5.8v1.3h2.1v5.8h0Z"/>
  <path class="st5" d="M225,87.9h3.1c2.2,0,3.2-1.5,3.2-3.6s-1.4-3.5-3.2-3.5h-3.1v7.1h0ZM226.5,82.1h1.1c1.6,0,2.1.9,2.1,2.4s-.9,2.1-1.8,2.1h-1.4v-4.5h0ZM232.5,87.9h5.4v-1.3h-3.9v-1.8h3.5v-1.2h-3.5v-1.5h3.8v-1.3h-5.3v7.1h0ZM239.2,87.9h1.6v-3h3v-1.2h-3v-1.7h3.5v-1.3h-5v7.1h0ZM245.1,87.9h1.6v-7.1h-1.6v7.1h0ZM254.4,83.2c-.2-1.7-1.5-2.6-3.1-2.6s-3.5,1.7-3.5,3.8,1.3,3.7,3.5,3.7,3-1.1,3.1-2.9h-1.5c-.1.9-.7,1.6-1.6,1.6-1.4,0-1.9-1.2-1.9-2.4s.5-2.5,1.9-2.5,1.5.5,1.6,1.2h1.5ZM255.7,87.9h1.6v-7.1h-1.6v7.1h0ZM258.7,87.9h5.4v-1.3h-3.9v-1.8h3.5v-1.2h-3.5v-1.5h3.8v-1.3h-5.3v7.1h0ZM265.4,87.9h1.5v-4.8h0l3,4.8h1.6v-7.1h-1.5v4.8h0l-3-4.8h-1.6v7.1h0ZM274.4,87.9h1.6v-5.8h2.1v-1.3h-5.9v1.3h2.1v5.8h0Z"/>
  <path class="st5" d="M239.1,77.9h3.1c2.2,0,3.2-1.5,3.2-3.6s-1.4-3.5-3.2-3.5h-3.1v7.1h0ZM240.6,72.1h1.1c1.6,0,2.1.9,2.1,2.4s-.9,2.1-1.8,2.1h-1.4v-4.5h0ZM245.5,77.9h1.6l.6-1.6h2.7l.5,1.6h1.6l-2.7-7.1h-1.6l-2.7,7.1h0ZM249,72.6h0l.9,2.6h-1.9l.9-2.6h0ZM254.1,77.9h1.6v-5.8h2.1v-1.3h-5.9v1.3h2.1v5.8h0ZM257.3,77.9h1.6l.6-1.6h2.7l.5,1.6h1.6l-2.7-7.1h-1.6l-2.7,7.1h0ZM260.8,72.6h0l.9,2.6h-1.9l.9-2.6h0Z"/>
  <path d="M42.5,109.5h1.5v-4.8h0l3,4.8h1.6v-7.1h-1.5v4.8h0l-3-4.8h-1.6v7.1h0ZM50.1,109.5h5.4v-1.3h-3.8v-1.8h3.5v-1.2h-3.5v-1.5h3.8v-1.3h-5.3v7.1h0Z"/>
  <g>
    <g class="st4">
      <path d="M244.5,109.5h3.1c2.2,0,3.2-1.5,3.2-3.6s-1.4-3.5-3.2-3.5h-3.1v7.1h0ZM246.1,103.7h1.1c1.6,0,2.1.9,2.1,2.4s-.9,2.1-1.8,2.1h-1.4v-4.5h0ZM252,109.5h3.1c2.2,0,3.2-1.5,3.2-3.6s-1.4-3.5-3.2-3.5h-3.1v7.1h0ZM253.6,103.7h1.1c1.6,0,2.1.9,2.1,2.4s-.9,2.1-1.8,2.1h-1.4v-4.5h0Z"/>
    </g>
    <g class="st3">
      <path class="st7" d="M968.5,79.4V0h-80.7c-43.2.8-78,36-78,79.4s35.5,79.4,79.4,79.4,79.2-35.3,79.4-79h0v-.3s0,0,0,0h0Z"/>
    </g>
  </g>
  <path class="st5" d="M965.2,29.8c0-.6-.5-1-1-1s-1,.4-1,1,.4,1,1,1c.6,0,1-.4,1-1h0ZM964.9,29.8c0,.5-.3.9-.8.9s-.8-.4-.8-.9.3-.9.8-.9.8.4.8.9h0ZM963.8,29.8c0-.2.1-.4.4-.4s.3.1.3.2h.2c0-.3-.2-.4-.5-.4-.4,0-.6.3-.6.6s.2.6.6.6.5-.2.5-.4h-.2c0,.1-.1.2-.3.2-.2,0-.4-.2-.4-.4h0ZM963.3,33c0-2.4-1.4-3.8-3.8-3.8h-3.3s0,7.7,0,7.7h3.3c2.3,0,3.8-1.4,3.8-3.9h0ZM961.4,33c0,1.5-.6,2.1-2.1,2.2h-.9v-4.2s.9,0,.9,0c1.4,0,2.1.7,2.1,2.1h0ZM960.5,15.5c1.5-1.5,1.9-3.6.7-4.8-1.1-1.2-3.3-.9-4.8.6s-1.9,3.6-.7,4.8c1.1,1.2,3.3.9,4.8-.6h0ZM956,11c1.5-1.5,1.9-3.6.7-4.8-1.1-1.2-3.3-.9-4.8.6s-1.9,3.6-.7,4.8c1.1,1.2,3.3.9,4.8-.6h0ZM948.7,12.2c1.5-1.5,1.9-3.6.7-4.8-1.1-1.2-3.3-.9-4.8.6s-1.9,3.6-.7,4.8c1.1,1.2,3.3.9,4.8-.6h0ZM947.3,13.9c-3.3,0-6,2.7-6,6.1,0,3.3,2.7,6,6,6,3.3,0,6-2.7,6-6.1,0-3.3-2.7-6-6-6h0ZM939.4,37.5c0-5.4-4.4-9.7-9.7-9.7-5.3,0-9.7,4.4-9.7,9.7,0,5.4,4.4,9.7,9.7,9.7,5.4,0,9.7-4.4,9.7-9.7h0ZM930.8,35.5h-1.3c0,0-.1-.1-.2-.2-.6-.6-1.3-.9-2.2-.9s-1.6.4-2.2.9-.9,1.4-.9,2.2.3,1.6.9,2.2c.6.6,1.3.9,2.2.9s1.6-.4,2.2-.9c0,0,0,0,.1-.1h1.3c-.7,1.2-2.1,2.1-3.6,2.1-2.3,0-4.2-1.9-4.2-4.2s1.9-4.2,4.2-4.2c1.6,0,3,.9,3.7,2.2h0ZM928.5,37.6c0,0,0,.2,0,.2s0,.1,0,.2c0,0,0,.1.2.1s.2,0,.2,0,.2,0,.3-.1c0,0,.1-.2.1-.3h.4c0,.1,0,.2,0,.3,0,.1,0,.2-.2.2,0,0-.2.1-.3.2,0,0-.2,0-.3,0s-.3,0-.4,0-.2-.1-.3-.2-.2-.2-.2-.3,0-.3,0-.4,0-.3,0-.4c0-.1.1-.2.2-.3,0,0,.2-.2.3-.2s.2,0,.4,0,.2,0,.3,0,.2,0,.3.1c0,0,.1.1.2.2s0,.2,0,.3h-.4s0,0,0-.1c0,0,0,0,0-.1s0,0-.1,0c0,0,0,0-.2,0,0,0-.2,0-.2,0s-.1,0-.2.1,0,.1,0,.2c0,0,0,.2,0,.3h0ZM927.4,37.8v-1.2h.4v1.2c0,.3,0,.5-.2.6-.2.1-.3.2-.6.2s-.5,0-.6-.2-.2-.3-.2-.6v-1.2h.4v1.2s0,.1,0,.2c0,0,0,.1,0,.1,0,0,0,0,.1.1,0,0,.1,0,.2,0,.2,0,.3,0,.3-.1,0,0,0-.2,0-.3h0ZM925.4,38.5v-2h.4v2h-.4ZM931.8,38.5h-.4l-.8-1.3h0v1.3h-.4v-2h.4l.8,1.3h0v-1.3h.4v2h0ZM939.3,16.4V6.7s-9.7,0-9.7,0c-5.3,0-9.6,4.3-9.6,9.7,0,5.3,4.3,9.6,9.7,9.6,5.3,0,9.6-4.3,9.6-9.7h0ZM945.6,29.2h-3.9s0,7.7,0,7.7h2v-2.8s1.5,0,1.5,0c.9,0,1.1.8,1.1,1.6,0,.2,0,1,.2,1.2h2c-.3-.3-.3-1.4-.3-1.7,0-.7-.3-1.6-1.1-1.8h0c.8-.3,1.2-1.1,1.2-1.9,0-1.5-1.3-2.1-2.7-2.1h0ZM945.2,30.8c.6,0,1,.3,1,.8s-.3.9-.9.9h-1.7v-1.7h1.6ZM943.7,37.7h-2v7.6s5.6,0,5.6,0v-1.7h-3.6s0-5.9,0-5.9h0ZM949.8,37.6h-2v7.6h2v-7.6h0ZM955.2,18.5c-1.5,1.5-1.9,3.6-.7,4.8,1.1,1.2,3.3.9,4.8-.6s1.9-3.6.7-4.8c-1.1-1.1-3.3-.9-4.8.6h0ZM951.2,35.1v-1.5h3.8v-1.6h-3.8s0-1.3,0-1.3h4.1v-1.6h-6.1s0,7.7,0,7.7h6.2v-1.7h-4.2ZM952.3,42.7h-2c0,2,1.6,2.7,3.3,2.7s3.3-.6,3.3-2.6-1.1-1.9-2.2-2.2c-1.1-.3-2.2-.4-2.2-1s.5-.6,1-.7c.6,0,1.3.2,1.2.9h2c0-1.7-1.5-2.5-3.1-2.5s-3.1.7-3.1,2.3c0,1.4,1.2,1.9,2.2,2.2,1.1.3,2.2.4,2.2,1.1s-.6.8-1.2.8c-.8,0-1.4-.3-1.5-1.2h0ZM956.7,39.4h2.3v5.9h2v-5.9s2.3,0,2.3,0v-1.7h-6.6s0,1.7,0,1.7h0Z"/>
  <polyline class="st5" points="950 71.9 957.7 79.4 950 86.9 953.6 86.9 961.3 79.4 953.6 71.9 950 71.9"/>
  <polyline class="st5" points="827.5 71.9 819.8 79.4 827.5 86.9 823.8 86.9 816.2 79.4 823.8 71.9 827.5 71.9"/>
  <path class="st5" d="M886,103.8c.3,0,.6,0,.7.1.3.2.4.5.4.9s-.2.7-.5.8c-.2,0-.4.1-.8.1h-1.7v-2h1.8ZM886.3,102.5h-3.6v7.6h1.5v-3h1.5c.4,0,.7,0,.9.2.2.2.2.5.2,1v.7c0,.2,0,.4,0,.7,0,0,0,.2,0,.4h1.7v-.2c-.2,0-.2-.2-.3-.4,0-.1,0-.4,0-.7v-.5c0-.5,0-.9-.2-1.2-.2-.3-.4-.5-.7-.6.4-.1.7-.4.9-.7.2-.3.3-.7.3-1.1s0-.6-.1-.8c0-.2-.2-.4-.4-.6-.2-.2-.4-.4-.7-.5-.3-.1-.7-.2-1.2-.2h0ZM895.8,102.5h-5.5v7.6h5.7v-1.4h-4.2v-1.9h3.7v-1.3h-3.7v-1.6h4v-1.3h0Z"/>
  <path class="st5" d="M864.5,82.6h-8.7v11.9h9v-2.1h-6.6v-3h5.8v-2.1h-5.8v-2.5h6.3v-2.1h0ZM870.9,90.4l2.3,4h3l-3.9-6.2,3.6-5.7h-2.9l-2.2,3.9-2.1-3.9h-3l3.6,5.8-3.8,6h2.9l2.4-4h0ZM876.7,82.6v2.1h3.6v9.8h2.5v-9.8h3.5v-2.1h-9.6ZM889.8,82.6h-2.5v11.9h2.5v-11.9h0ZM891.8,94.4h2.3v-8.4l4.8,8.4h2.5v-11.9h-2.3v8.3l-4.7-8.3h-2.6v11.9h0ZM903,88.6c0,1.9.5,3.4,1.5,4.5,1,1.1,2.3,1.6,4,1.6s2.5-.4,3.4-1.2c.9-.8,1.4-1.9,1.6-3.2h-2.5c-.2.6-.4,1.1-.6,1.4-.5.6-1.1.8-2,.8s-1.5-.3-2-1-.8-1.7-.8-3,.3-2.4.8-3.1c.5-.7,1.2-1.1,2.1-1.1s1.5.3,2,.8c.2.3.5.7.6,1.3h2.5c0-.7-.3-1.5-.8-2.2-.9-1.3-2.4-2-4.3-2s-2.7.5-3.7,1.5c-1.1,1.1-1.6,2.7-1.6,4.8h0ZM914,82.6v2.1h3.6v9.8h2.5v-9.8h3.5v-2.1h-9.6Z"/>
  <path class="st5" d="M844.1,67c.5,0,.9,0,1.2.2.5.2.7.7.7,1.5s-.2,1.1-.7,1.3c-.3.1-.7.2-1.2.2h-2.7v-3.2h2.7ZM844.6,65h-5.7v11.9h2.4v-4.7h2.4c.7,0,1.2.1,1.4.4s.4.8.4,1.5v1.1c0,.4,0,.7.1,1,0,.2,0,.4.2.6h2.7v-.3c-.2-.1-.4-.4-.5-.7,0-.2,0-.6,0-1.1v-.8c0-.8-.1-1.5-.3-1.9-.2-.4-.6-.7-1.2-.9.7-.2,1.1-.6,1.4-1.2.3-.5.4-1.1.4-1.7s0-.9-.2-1.2c-.2-.4-.3-.7-.6-1-.3-.4-.7-.6-1.1-.8-.4-.2-1-.3-1.9-.3h0ZM859.1,65h-8.7v11.9h9v-2.1h-6.6v-3h5.8v-2.1h-5.8v-2.5h6.3v-2.1h0ZM871.2,68.7c-.1-1.1-.7-2.1-1.6-2.9-.9-.8-2.1-1.1-3.6-1.1s-3.1.6-4.2,1.7-1.6,2.7-1.6,4.6.5,3.4,1.6,4.5c1,1.1,2.3,1.6,3.9,1.6s1.8-.2,2.4-.6c.4-.2.8-.6,1.3-1.2l.2,1.5h1.6v-6.4h-5v2h2.8c-.1.8-.5,1.4-1,1.9-.5.5-1.2.7-2,.7s-1.6-.3-2.3-.9c-.7-.6-1-1.6-1-3.1s.3-2.5.9-3.2,1.4-1.1,2.4-1.1,1,0,1.4.3c.7.3,1.2.9,1.4,1.7h2.4ZM875.6,65h-2.5v11.9h2.5v-11.9h0ZM882.9,75.1c-1,0-1.8-.4-2.3-1.1-.6-.7-.9-1.8-.9-3.1s.3-2.4.9-3.1c.6-.7,1.4-1.1,2.3-1.1s1.8.4,2.3,1.1.9,1.8.9,3.1-.3,2.4-.9,3.1c-.6.7-1.4,1.1-2.3,1.1h0ZM888.6,70.9c0-2.2-.6-3.8-1.8-4.9-.9-.9-2.2-1.4-3.9-1.4s-3,.5-3.9,1.4c-1.2,1.1-1.8,2.7-1.8,4.9s.6,3.8,1.8,4.9c.9.9,2.2,1.4,3.9,1.4s3-.5,3.9-1.4c1.2-1.1,1.8-2.8,1.8-4.9h0ZM890.2,76.8h2.3v-8.4l4.8,8.4h2.5v-11.9h-2.3v8.3l-4.7-8.3h-2.6v11.9h0ZM906.6,67.7l1.5,4.7h-3l1.5-4.7h0ZM900.9,76.8h2.6l.8-2.4h4.4l.8,2.4h2.7l-4.2-11.9h-2.8l-4.2,11.9h0ZM913.3,76.8h8.4v-2.1h-5.9v-9.7h-2.5v11.9h0ZM922.9,76.8h8.4v-2.1h-5.9v-9.7h-2.5v11.9h0ZM935.4,70.1l-2.5-5.2h-2.9l4.1,7.4v4.5h2.5v-4.5l4-7.4h-2.8l-2.4,5.2h0Z"/>
  <path class="st5" d="M118.9,87.9h1.6l.6-1.6h2.7l.5,1.6h1.6l-2.7-7.1h-1.6l-2.7,7.1h0ZM122.4,82.6h0l.9,2.6h-1.9l.9-2.6h0ZM126.6,87.9h1.6v-2.6h1.6c1.8,0,2.5-1.1,2.5-2.3s-.7-2.3-2.5-2.3h-3.2v7.1h0ZM128.2,82h1.2c.7,0,1.4.2,1.4,1.1s-.6,1.1-1.4,1.1h-1.2v-2.1h0ZM133.3,87.9h1.6v-2.6h1.6c1.8,0,2.5-1.1,2.5-2.3s-.7-2.3-2.5-2.3h-3.2v7.1h0ZM134.8,82h1.2c.7,0,1.4.2,1.4,1.1s-.6,1.1-1.4,1.1h-1.2v-2.1h0ZM139.9,87.9h5.1v-1.3h-3.5v-5.8h-1.6v7.1h0ZM145.9,87.9h1.6v-7.1h-1.6v7.1h0ZM155.2,83.2c-.2-1.7-1.5-2.6-3.1-2.6s-3.5,1.7-3.5,3.8,1.3,3.7,3.5,3.7,3-1.1,3.1-2.9h-1.5c-.1.9-.7,1.6-1.6,1.6-1.4,0-1.9-1.2-1.9-2.4s.5-2.5,1.9-2.5,1.5.5,1.6,1.2h1.5ZM155.5,87.9h1.6l.6-1.6h2.7l.5,1.6h1.6l-2.7-7.1h-1.6l-2.7,7.1h0ZM159,82.6h0l.9,2.6h-1.9l.9-2.6h0ZM164.8,84.8h1.7c.7,0,1.1.3,1.1,1s-.5.9-1.2.9h-1.7v-2h0ZM163.2,87.9h3.5c1.3,0,2.5-.6,2.5-2.1s-.4-1.6-1.3-1.8c.6-.3,1-.8,1-1.5,0-1.3-.9-1.8-2.3-1.8h-3.4v7.1h0ZM164.8,82h1.5c.6,0,1.1.1,1.1.8s-.4.8-1,.8h-1.6v-1.7h0ZM170.4,87.9h5.1v-1.3h-3.5v-5.8h-1.6v7.1h0ZM176.3,87.9h5.4v-1.3h-3.9v-1.8h3.5v-1.2h-3.5v-1.5h3.8v-1.3h-5.3v7.1h0Z"/>
  <path class="st5" d="M140.5,77.9h1.5v-4.8h0l3,4.8h1.6v-7.1h-1.5v4.8h0l-3-4.8h-1.6v7.1h0ZM147.8,74.4c0,2.1,1.3,3.7,3.5,3.7s3.5-1.6,3.5-3.7-1.3-3.8-3.5-3.8-3.5,1.6-3.5,3.8h0ZM149.3,74.4c0-1.2.5-2.5,1.9-2.5s1.9,1.2,1.9,2.5-.5,2.4-1.9,2.4-1.9-1.2-1.9-2.4h0ZM157.4,77.9h1.6v-5.8h2.1v-1.3h-5.9v1.3h2.1v5.8h0Z"/>
  <path d="M144,109.5h1.5v-4.8h0l3,4.8h1.6v-7.1h-1.5v4.8h0l-3-4.8h-1.6v7.1h0ZM150.8,109.5h1.6l.6-1.6h2.7l.5,1.6h1.6l-2.7-7.1h-1.6l-2.7,7.1h0ZM154.3,104.2h0l.9,2.6h-1.9l.9-2.6h0Z"/>
</svg>